<?xml version="1.0" standalone="no"?>
<!DOCTYPE svg PUBLIC "-//W3C//DTD SVG 1.1//EN" "http://www.w3.org/Graphics/SVG/1.1/DTD/svg11.dtd" >
<svg xmlns="http://www.w3.org/2000/svg" xmlns:xlink="http://www.w3.org/1999/xlink" version="1.1">
<metadata>
Created by FontForge 20170731 at Tue Oct 25 19:12:38 2011
 By ,,,
2006 Dziedzic Lukasz published by FSI Fonts und Software GmbH
</metadata>
<defs>
<font id="Clan-Book" horiz-adv-x="1339" >
  <font-face 
    font-family="Clan-Book"
    font-weight="400"
    font-stretch="normal"
    units-per-em="2048"
    panose-1="2 0 5 3 5 0 0 2 0 4"
    ascent="1638"
    descent="-410"
    x-height="1208"
    cap-height="1536"
    bbox="-10 -393 2167 1876"
    underline-thickness="79"
    underline-position="-245"
    unicode-range="U+0020-FB04"
  />
<missing-glyph horiz-adv-x="1261" 
 />
    <glyph glyph-name=".notdef" horiz-adv-x="1261" 
 />
    <glyph glyph-name=".null" horiz-adv-x="0" 
 />
    <glyph glyph-name="nonmarkingreturn" horiz-adv-x="682" 
 />
    <glyph glyph-name="space" unicode=" " horiz-adv-x="655" 
 />
    <glyph glyph-name="exclam" unicode="!" horiz-adv-x="620" 
d="M217 68q0 90 94 90t95 -90q0 -88 -95 -88q-47 0 -70.5 20.5t-23.5 67.5zM240 1536h135l-23 -1145h-90z" />
    <glyph glyph-name="quotedbl" unicode="&#x22;" horiz-adv-x="739" 
d="M135 1581h137l-32 -455h-84zM475 1581h137l-32 -455h-84z" />
    <glyph glyph-name="numbersign" unicode="#" horiz-adv-x="1327" 
d="M133 485v105h264l62 377h-324v104h338l66 465h98l-64 -465h267l65 465h96l-65 -465h258v-104h-272l-60 -377h330v-105h-342l-70 -485h-96l68 485h-269l-67 -485h-101l68 485h-250zM498 590h268l57 377h-264z" />
    <glyph glyph-name="dollar" unicode="$" horiz-adv-x="1239" 
d="M133 82l17 131q80 -47 175 -80t201 -41l52 653q-82 29 -162 63t-143.5 81t-101.5 113.5t-38 162.5q0 188 133 289.5t377 106.5l10 135l84 -6l-10 -131q98 -8 179 -30t128 -46l-12 -121q-72 29 -146.5 46t-158.5 24l-47 -570q82 -29 161.5 -63.5t142 -85.5t100.5 -125
t38 -180q0 -225 -126 -329t-390 -108l-12 -145l-78 6l10 141q-111 8 -211 37t-172 72zM252 1171q0 -59 27.5 -102t73.5 -75.5t107.5 -57.5t129.5 -47l43 547q-199 -2 -290 -76t-91 -189zM606 90q399 2 400 301q0 70 -29 120t-77 88t-110.5 65.5t-132.5 52.5z" />
    <glyph glyph-name="percent" unicode="%" horiz-adv-x="1423" 
d="M117 1208q0 190 64.5 274.5t215.5 84.5q68 0 120 -18.5t87 -60.5t52.5 -110.5t17.5 -169.5q0 -190 -69.5 -273t-209.5 -83q-145 0 -211.5 83t-66.5 273zM207 1210q0 -80 11 -132t34.5 -82.5t59.5 -43t85 -12.5q47 0 82 12.5t57.5 43t34 82.5t11.5 132t-11.5 132.5t-34 83
t-57.5 43t-82 12.5q-49 0 -85 -12.5t-59.5 -43t-34.5 -83t-11 -132.5zM268 70l776 1456l80 -56l-776 -1456zM750 342q0 190 64.5 275t215.5 85q68 0 120 -18t87 -61t52.5 -112t17.5 -169q0 -190 -69 -273t-208 -83q-143 0 -211.5 83t-68.5 273zM844 342q0 -80 11 -131
t34.5 -82t58.5 -43t82 -12t83 12t58.5 43t34 82t11.5 131t-11.5 132t-34 83t-58.5 43t-83 12t-82 -12t-58.5 -43t-34.5 -83t-11 -132z" />
    <glyph glyph-name="ampersand" unicode="&#x26;" horiz-adv-x="1390" 
d="M121 369q0 84 24.5 154.5t65.5 131t95 112.5t112 97q-66 102 -101.5 195.5t-35.5 169.5q0 70 19 130t61 105t108 71t158 26q156 0 235.5 -72t79.5 -184q0 -74 -32.5 -135.5t-85 -117t-119 -106.5t-134.5 -102q80 -111 184.5 -225.5t221.5 -221.5q57 90 94 186.5t53 184.5
l107 2q-10 -88 -51 -210t-117 -241q76 -66 151.5 -123t151.5 -104l-45 -112q-162 98 -328 243q-88 -106 -204.5 -177t-270.5 -71q-106 0 -182 32t-124 86t-69.5 125t-21.5 151zM246 375q0 -133 81 -206t210 -73q109 0 201.5 56.5t166.5 146.5q-121 111 -229.5 231.5
t-194.5 239.5q-49 -39 -91 -83t-74.5 -92t-51 -102.5t-18.5 -117.5zM397 1229q0 -59 31 -134t84 -161q59 43 114.5 85t98.5 86t69.5 91t26.5 100q0 76 -52 119t-146 43q-98 0 -162 -59t-64 -170z" />
    <glyph glyph-name="quotesingle" unicode="'" horiz-adv-x="399" 
d="M131 1581h137l-32 -455h-84z" />
    <glyph glyph-name="parenleft" unicode="(" horiz-adv-x="649" 
d="M211 688q0 299 84 529.5t235 422.5l113 -8q-147 -199 -230 -431t-83 -513q0 -287 86 -519t225 -425l-111 -8q-147 174 -233 419.5t-86 532.5z" />
    <glyph glyph-name="parenright" unicode=")" horiz-adv-x="649" 
d="M6 1632l113 8q152 -193 234.5 -423t82.5 -529q0 -287 -85 -532.5t-232 -419.5l-111 8q141 193 226 425t85 519q0 281 -84 513t-229 431z" />
    <glyph glyph-name="asterisk" unicode="*" horiz-adv-x="714" 
d="M61 1380l27 74l229 -63l7 239h71l6 -239l228 63l24 -74l-229 -71l147 -201l-57 -47l-154 201l-159 -201l-58 45l150 203z" />
    <glyph glyph-name="plus" unicode="+" horiz-adv-x="1216" 
d="M162 639v119h385v397h112v-397h398v-119h-398v-389h-112v389h-385z" />
    <glyph glyph-name="comma" unicode="," horiz-adv-x="495" 
d="M152 68q0 45 22.5 72.5t71.5 27.5q51 0 73.5 -27.5t22.5 -74.5q0 -23 -12.5 -67t-30.5 -94t-40.5 -101.5t-43.5 -90.5l-47 13l53 254q-29 8 -49 32.5t-20 55.5z" />
    <glyph glyph-name="hyphen" unicode="-" horiz-adv-x="847" 
d="M164 647v98h518v-98h-518z" />
    <glyph glyph-name="period" unicode="." horiz-adv-x="495" 
d="M152 76q0 94 98 94q94 0 94 -94q0 -96 -94 -96q-49 0 -73.5 21.5t-24.5 74.5z" />
    <glyph glyph-name="slash" unicode="/" horiz-adv-x="880" 
d="M43 -264l707 1900h108l-708 -1900h-107z" />
    <glyph glyph-name="zero" unicode="0" 
d="M133 768q0 219 31 369.5t96.5 244t166.5 134t245 40.5q141 0 242.5 -40.5t166 -134t95 -244t30.5 -369.5q0 -217 -30.5 -367.5t-96 -245t-167 -136.5t-242.5 -42t-243.5 42t-167 136.5t-95.5 245t-31 367.5zM260 770q0 -201 24.5 -331t76 -205.5t129 -105.5t182.5 -30
q104 0 181 30t126 105.5t73.5 205.5t24.5 331q0 199 -24.5 328t-73.5 203.5t-126 103.5t-181 29t-182 -30t-129.5 -104.5t-76 -202.5t-24.5 -327z" />
    <glyph glyph-name="one" unicode="1" 
d="M319 1241l426 301h78v-1436h289v-106h-723v106h299v1088l4 166l-4 2l-352 -240z" />
    <glyph glyph-name="two" unicode="2" 
d="M188 0v94q154 143 303.5 278.5t266 265.5t189.5 253t73 242q0 61 -21.5 115.5t-66.5 94t-116 63.5t-171 24q-117 0 -222.5 -45.5t-186.5 -114.5l-39 110q86 74 205.5 123t261.5 49q236 0 361.5 -107.5t125.5 -299.5q0 -125 -58.5 -246t-162 -245t-245.5 -253t-312 -270
v-6h794l-4 -125h-975z" />
    <glyph glyph-name="three" unicode="3" 
d="M178 109l31 112q90 -59 192.5 -90t233.5 -31q109 0 187.5 28t131 76t77 114.5t24.5 146.5q0 82 -30 140.5t-94.5 95t-165.5 54t-245 17.5v102q266 0 380 77t114 220q0 135 -99.5 198t-267.5 63q-129 0 -229.5 -42t-186.5 -114l-38 104q78 72 195.5 122t264.5 50
q225 0 353.5 -94t128.5 -278q0 -76 -21.5 -133.5t-60.5 -100.5t-92.5 -71.5t-114.5 -45.5v-4q162 -33 248 -120t86 -248q0 -106 -32 -193.5t-98.5 -150t-169 -96t-243.5 -33.5q-160 0 -269.5 37t-189.5 88z" />
    <glyph glyph-name="four" unicode="4" 
d="M152 446l696 1090h164v-1059h213l-6 -119h-207v-358h-121v358h-727zM301 483l2 -6h590l6 785l6 165l-4 3l-88 -144l-422 -670z" />
    <glyph glyph-name="five" unicode="5" 
d="M205 109l28 116q88 -59 180.5 -92t215.5 -33q401 0 401 410q0 180 -93 259t-292 79q-113 0 -212 -25.5t-169 -66.5l-55 51l61 729h815l7 -123h-721l-45 -520q78 35 170 52.5t180 17.5q242 0 361.5 -109t119.5 -334q0 -266 -128 -401t-390 -135q-137 0 -242.5 33
t-191.5 92z" />
    <glyph glyph-name="six" unicode="6" 
d="M150 715q0 434 158.5 635.5t461.5 201.5q92 0 169 -13t161 -48l-15 -119q-74 29 -144.5 43.5t-156.5 14.5q-244 0 -371.5 -148.5t-140.5 -474.5l7 -4q86 78 197.5 121t228.5 43q248 0 361.5 -108.5t113.5 -336.5q0 -268 -126 -403t-380 -135q-129 0 -226.5 36.5
t-164 122.5t-100 226.5t-33.5 345.5zM281 682q2 -160 25.5 -270.5t71.5 -179t121.5 -100.5t174.5 -32q377 0 377 424q0 174 -88.5 255t-280.5 81q-51 0 -107.5 -12t-109.5 -36t-101 -56.5t-83 -73.5z" />
    <glyph glyph-name="seven" unicode="7" 
d="M158 1405l6 131h1040v-115l-688 -1421h-151l708 1405h-915z" />
    <glyph glyph-name="eight" unicode="8" 
d="M147 412q0 74 24 135t66 111.5t99 90t127 66.5v6q-55 23 -101.5 52.5t-80 71.5t-53 97.5t-19.5 128.5q0 178 107.5 279.5t355.5 101.5q238 0 350.5 -96t112.5 -285q0 -125 -68 -219t-197 -149v-4q66 -23 124.5 -53.5t102.5 -75.5t69.5 -107.5t25.5 -150.5
q0 -217 -131 -323.5t-389 -106.5q-272 0 -398.5 106.5t-126.5 323.5zM272 412q0 -156 92.5 -237t311.5 -81q178 0 284.5 75t106.5 237q0 92 -42 150t-110.5 97t-153.5 64.5t-171 52.5q-66 -27 -124 -61.5t-101 -77.5t-68 -97t-25 -122zM328 1167q0 -82 34.5 -134t93 -88
t133.5 -59.5t154 -45.5q145 59 210 136t65 185q0 139 -84 210t-264 71q-176 0 -259 -71t-83 -204z" />
    <glyph glyph-name="nine" unicode="9" 
d="M145 1090q0 215 121 338.5t375 123.5t395.5 -173t141.5 -525q0 -236 -38 -401.5t-112 -270t-184.5 -151.5t-257.5 -47q-98 0 -176 15t-164 52l20 115q76 -33 147.5 -48.5t159.5 -15.5q121 0 209 38t147.5 121t90.5 212t37 313l-4 2q-84 -78 -187.5 -113.5t-224.5 -35.5
q-129 0 -223 31.5t-154.5 90t-89.5 143t-29 186.5zM270 1096q0 -162 93.5 -254t293.5 -92q117 0 218.5 35.5t175.5 121.5q-2 141 -32 241.5t-83 164t-129 93.5t-168 30q-184 0 -276.5 -87t-92.5 -253z" />
    <glyph glyph-name="colon" unicode=":" horiz-adv-x="495" 
d="M152 76q0 94 98 94q94 0 94 -94q0 -96 -94 -96q-49 0 -73.5 21.5t-24.5 74.5zM152 1059q0 94 98 94q94 0 94 -94q0 -96 -94 -96q-49 0 -73.5 21.5t-24.5 74.5z" />
    <glyph glyph-name="uni037E" unicode=";" horiz-adv-x="505" 
d="M154 68q0 45 22.5 72.5t71.5 27.5q51 0 73.5 -27.5t22.5 -74.5q0 -23 -12.5 -67t-30.5 -94t-40.5 -101.5t-43.5 -90.5l-47 13l53 254q-29 8 -49 32.5t-20 55.5zM162 1059q0 94 98 94q94 0 94 -94q0 -96 -94 -96q-49 0 -73.5 21.5t-24.5 74.5z" />
    <glyph glyph-name="uni037E" unicode="&#x37e;" horiz-adv-x="505" 
d="M154 68q0 45 22.5 72.5t71.5 27.5q51 0 73.5 -27.5t22.5 -74.5q0 -23 -12.5 -67t-30.5 -94t-40.5 -101.5t-43.5 -90.5l-47 13l53 254q-29 8 -49 32.5t-20 55.5zM162 1059q0 94 98 94q94 0 94 -94q0 -96 -94 -96q-49 0 -73.5 21.5t-24.5 74.5z" />
    <glyph glyph-name="less" unicode="&#x3c;" horiz-adv-x="1216" 
d="M190 662v65l838 444v-133l-528 -268l-148 -70v-6l150 -69l526 -260v-129z" />
    <glyph glyph-name="equal" unicode="=" horiz-adv-x="1216" 
d="M160 467v106h899v-106h-899zM160 815v107h899v-107h-899z" />
    <glyph glyph-name="greater" unicode="&#x3e;" horiz-adv-x="1216" 
d="M190 236v129l525 258l151 69v6l-149 70l-527 270v133l838 -444v-65z" />
    <glyph glyph-name="question" unicode="?" horiz-adv-x="1056" 
d="M86 1386q76 76 191.5 126.5t259.5 50.5q209 0 310 -91.5t101 -263.5q0 -174 -101.5 -295.5t-283.5 -224.5l-6 -297h-100l-8 348q88 55 156.5 106.5t116.5 106t73.5 113.5t25.5 129q0 131 -79.5 190.5t-217.5 59.5q-121 0 -216 -44t-173 -114zM416 68q0 90 96 90
q92 0 92 -90q0 -88 -92 -88q-49 0 -72.5 20.5t-23.5 67.5z" />
    <glyph glyph-name="at" unicode="@" horiz-adv-x="1732" 
d="M119 694q0 180 50 344t150.5 289t249 200t344.5 75q164 0 293 -57.5t220.5 -160t139.5 -245t48 -312.5q0 -147 -29 -253.5t-78 -177t-116.5 -104.5t-147.5 -34q-86 0 -142.5 43t-72.5 131l-6 2q-45 -80 -115.5 -128t-156.5 -48q-115 0 -185.5 79t-70.5 251
q0 109 32.5 209t89 177t132 123t163.5 46q127 0 185 -94h6l26 79l76 -8l-92 -524q-6 -39 -6 -74q0 -78 36 -124t118 -46q121 0 195.5 118t74.5 357q0 147 -40 273.5t-119 218.5t-193.5 144.5t-266.5 52.5q-174 0 -307 -67t-221 -180.5t-133 -263t-45 -313.5
q0 -170 42 -318.5t129 -259t220 -175t315 -64.5q119 0 211 18.5t163 47t122 65.5t86 72l37 -76q-104 -90 -253 -150.5t-366 -60.5q-197 0 -344 66.5t-247.5 185.5t-150.5 285.5t-50 365.5zM604 588q0 -117 47 -171.5t125 -54.5q43 0 81 19.5t68.5 53.5t52 81t30.5 102
l61 340q-47 84 -156 84q-63 0 -119.5 -37.5t-98.5 -100t-66.5 -144.5t-24.5 -172z" />
    <glyph glyph-name="A" unicode="A" horiz-adv-x="1429" 
d="M51 0l584 1536h160l583 -1536h-151l-146 406h-739l-145 -406h-146zM387 526h651l-268 752l-51 158h-6l-54 -158z" />
    <glyph glyph-name="B" unicode="B" horiz-adv-x="1400" 
d="M227 0v1536h533q215 0 321.5 -92t106.5 -285q0 -152 -63.5 -233.5t-161.5 -110.5v-4q135 -29 212.5 -119t77.5 -262q0 -102 -24.5 -182t-79.5 -135.5t-143 -84t-215 -28.5h-564zM356 119h437q154 0 240.5 71.5t86.5 249.5q0 158 -83 231.5t-253 73.5h-428v-626zM358 856
h414q287 0 287 281q0 150 -74 214t-229 64h-398v-559z" />
    <glyph glyph-name="C" unicode="C" horiz-adv-x="1251" 
d="M143 784q0 403 157 590t491 187q49 0 99 -6.5t98 -16.5t89 -23.5t72 -27.5l-19 -125q-63 29 -150 49.5t-183 20.5q-131 0 -228.5 -33t-161 -109t-94 -199.5t-30.5 -306.5q0 -195 31.5 -325.5t96 -210.5t162 -114t230.5 -34q98 0 180 21.5t152 58.5l22 -117
q-70 -37 -168 -64.5t-203 -27.5q-168 0 -288.5 47.5t-199.5 147.5t-117 253.5t-38 364.5z" />
    <glyph glyph-name="D" unicode="D" horiz-adv-x="1515" 
d="M227 0v1536h502q170 0 292 -42t200.5 -134t115.5 -236.5t37 -349.5q0 -211 -39 -358.5t-118.5 -239.5t-200.5 -134t-285 -42h-504zM362 129h365q127 0 222 29.5t157.5 102.5t94.5 198t32 315q0 182 -29.5 303t-91 193.5t-158 103.5t-229.5 31h-363v-1276z" />
    <glyph glyph-name="E" unicode="E" horiz-adv-x="1282" 
d="M227 0v1536h906l6 -127h-779v-547h674v-114h-674v-621h816l-7 -127h-942z" />
    <glyph glyph-name="F" unicode="F" horiz-adv-x="1218" 
d="M227 0v1536h906l4 -131h-775v-555h652v-123h-652v-727h-135z" />
    <glyph glyph-name="G" unicode="G" horiz-adv-x="1396" 
d="M143 762q0 215 40 366.5t123 248t210 140.5t301 44q109 0 214.5 -20.5t182.5 -55.5l-18 -125q-78 35 -171 55.5t-202 20.5q-137 0 -238.5 -33t-169 -109.5t-100 -206t-32.5 -323.5q0 -184 29.5 -310t94 -204t164 -113t240.5 -35q182 0 319 58v647h121v-746
q-82 -41 -196.5 -65.5t-241.5 -24.5q-174 0 -300 45t-208 140.5t-122 245t-40 360.5z" />
    <glyph glyph-name="H" unicode="H" horiz-adv-x="1554" 
d="M227 0v1536h135v-670h830v670h135v-1536h-135v739h-830v-739h-135z" />
    <glyph glyph-name="I" unicode="I" horiz-adv-x="647" 
d="M256 0v1536h135v-1536h-135z" />
    <glyph glyph-name="J" unicode="J" horiz-adv-x="1124" 
d="M82 66l14 124q53 -43 124 -67.5t161 -24.5q180 0 279.5 97.5t99.5 296.5v1044h137v-1047q0 -256 -130 -387t-372 -131q-102 0 -180 26t-133 69z" />
    <glyph glyph-name="K" unicode="K" horiz-adv-x="1421" 
d="M227 0v1536h135v-672h259l528 672h168l-574 -725l609 -811h-176l-558 743h-256v-743h-135z" />
    <glyph glyph-name="L" unicode="L" horiz-adv-x="1179" 
d="M227 0v1536h135v-1405h762l-6 -131h-891z" />
    <glyph glyph-name="M" unicode="M" horiz-adv-x="1865" 
d="M227 0v1536h160l485 -1194l60 -154h6l57 154l486 1194h157v-1536h-120v1149l4 166l-6 2l-60 -156l-473 -1161h-102l-473 1155l-60 156l-4 -2l2 -166v-1143h-119z" />
    <glyph glyph-name="N" unicode="N" horiz-adv-x="1564" 
d="M227 0v1536h133l768 -1159l91 -139l4 2l-4 163l-2 1133h120v-1536h-100l-795 1188l-90 139l-4 -2l2 -166v-1159h-123z" />
    <glyph glyph-name="O" unicode="O" horiz-adv-x="1509" 
d="M143 768q0 213 33 363.5t106.5 246t190.5 139.5t283 44q168 0 284.5 -44t189.5 -139.5t105.5 -246t32.5 -363.5q0 -215 -32.5 -365.5t-105.5 -247t-189.5 -140.5t-284.5 -44q-166 0 -283 44t-189.5 140.5t-106.5 248t-34 364.5zM283 768q0 -193 26.5 -322t84 -204.5
t147.5 -107.5t217 -32t216 32t146.5 107.5t83 204.5t25.5 322q0 195 -25.5 323t-83 203.5t-147.5 106.5t-217 31t-217 -31t-146.5 -106.5t-83 -203.5t-26.5 -323z" />
    <glyph glyph-name="P" unicode="P" horiz-adv-x="1323" 
d="M227 0v1536h490q262 0 381 -107.5t119 -349.5q0 -231 -118 -344.5t-382 -113.5h-355v-621h-135zM362 737h355q90 0 157.5 16.5t113.5 56.5t68.5 105.5t22.5 163.5q0 184 -89 260t-273 76h-355v-678z" />
    <glyph glyph-name="Q" unicode="Q" horiz-adv-x="1509" 
d="M143 768q0 213 33 363.5t106.5 246t190.5 139.5t283 44q168 0 284.5 -44t189.5 -139.5t105.5 -246t32.5 -363.5q0 -195 -26.5 -337t-86 -237.5t-153.5 -147.5t-228 -64l-2 -5l138 -94l223 -155l-191 -43l-325 286q-156 6 -264.5 53.5t-177 143.5t-100.5 244.5t-32 355.5z
M283 768q0 -193 26.5 -322t84 -204.5t147.5 -107.5t217 -32t216 32t146.5 107.5t83 204.5t25.5 322q0 195 -25.5 323t-83 203.5t-147.5 106.5t-217 31t-217 -31t-146.5 -106.5t-83 -203.5t-26.5 -323z" />
    <glyph glyph-name="R" unicode="R" horiz-adv-x="1335" 
d="M227 0v1536h498q233 0 342 -102.5t109 -313.5q0 -188 -84 -287.5t-244 -117.5l428 -715h-164l-393 690h-357v-690h-135zM362 801h351q168 0 245.5 72.5t77.5 240.5q0 162 -74.5 231.5t-236.5 69.5h-363v-614z" />
    <glyph glyph-name="S" unicode="S" horiz-adv-x="1153" 
d="M119 90l24 127q90 -59 189.5 -89t222.5 -30q184 0 276.5 84t92.5 234q0 102 -58.5 161.5t-146.5 99.5t-189.5 71.5t-189.5 80t-146.5 123t-58.5 201.5q0 86 29 161t87 130t148 86t213 31q113 0 212.5 -21.5t181.5 -60.5l-25 -121q-88 37 -175 57.5t-188 20.5
q-94 0 -161.5 -22.5t-110.5 -60.5t-62.5 -87t-19.5 -105q0 -98 58.5 -153.5t146.5 -93t190.5 -69.5t190.5 -81t146.5 -128t58.5 -212q0 -211 -126 -332t-374 -121q-133 0 -240.5 33t-195.5 86z" />
    <glyph glyph-name="T" unicode="T" horiz-adv-x="1177" 
d="M39 1405l4 131h1094l2 -131h-484v-1405h-135v1405h-481z" />
    <glyph glyph-name="U" unicode="U" horiz-adv-x="1517" 
d="M193 555v981h135v-981q0 -238 107.5 -345.5t324.5 -107.5t323.5 108.5t106.5 344.5v981h135v-981q0 -154 -38 -264.5t-110.5 -181t-178 -104.5t-238.5 -34q-135 0 -240.5 34t-178.5 104.5t-110.5 181t-37.5 264.5z" />
    <glyph glyph-name="V" unicode="V" horiz-adv-x="1398" 
d="M61 1536h150l438 -1249l51 -158h7l51 156l438 1251h141l-559 -1536h-157z" />
    <glyph glyph-name="W" unicode="W" horiz-adv-x="2039" 
d="M125 1536h139l287 -1241l35 -162h6l37 162l315 1241h156l315 -1239l39 -162h6l33 162l287 1239h135l-375 -1536h-172l-309 1241l-35 164h-6l-37 -164l-311 -1241h-168z" />
    <glyph glyph-name="X" unicode="X" horiz-adv-x="1411" 
d="M98 0l502 797l-483 739h166l419 -662l416 662h160l-475 -737l512 -799h-160l-453 719l-442 -719h-162z" />
    <glyph glyph-name="Y" unicode="Y" horiz-adv-x="1343" 
d="M61 1536h158l381 -719l74 -147h6l72 147l378 719h152l-539 -997v-539h-137v539z" />
    <glyph glyph-name="Z" unicode="Z" horiz-adv-x="1261" 
d="M113 0v92l770 1178l92 133l-2 4h-834l6 129h994v-106l-764 -1164l-92 -131l2 -6h856l-6 -129h-1022z" />
    <glyph glyph-name="bracketleft" unicode="[" horiz-adv-x="638" 
d="M211 -258v1896h422v-100h-307v-1698h307v-98h-422z" />
    <glyph glyph-name="backslash" unicode="\" horiz-adv-x="794" 
d="M43 1636h102l627 -1900h-102z" />
    <glyph glyph-name="bracketright" unicode="]" horiz-adv-x="641" 
d="M6 -162h309v1700h-309v100h422v-1896h-422v96z" />
    <glyph glyph-name="asciicircum" unicode="^" 
d="M150 948l475 701h92l471 -701h-111l-407 594l-406 -594h-114z" />
    <glyph glyph-name="underscore" unicode="_" horiz-adv-x="892" 
d="M68 -100h766v-90h-766v90z" />
    <glyph glyph-name="grave" unicode="`" horiz-adv-x="808" 
d="M240 1653h161l150 -291h-100z" />
    <glyph glyph-name="a" unicode="a" horiz-adv-x="1163" 
d="M131 360q0 174 106.5 267.5t329.5 93.5q82 0 161 -15.5t140 -37.5v149q0 172 -74.5 237.5t-234.5 65.5q-94 0 -179 -17.5t-163 -58.5l-14 109q172 80 377 80q111 0 189.5 -23.5t127.5 -76t72.5 -135.5t23.5 -199v-799h-94l-14 170l-6 2q-49 -86 -149.5 -138t-227.5 -52
q-82 0 -150.5 21.5t-118 66.5t-76 117.5t-26.5 172.5zM250 362q0 -76 21.5 -129t60.5 -84.5t90 -46t113 -14.5q66 0 126 21.5t106 55.5t73.5 77t27.5 86v241q-23 16 -97.5 37t-184.5 21q-176 0 -256 -69t-80 -196z" />
    <glyph glyph-name="b" unicode="b" horiz-adv-x="1286" 
d="M207 0v1632l125 8v-401l-2 -164l4 -2q66 78 162 118t211 40q106 0 191 -32t145.5 -104.5t93 -192.5t32.5 -296q0 -172 -31.5 -291.5t-93 -194.5t-149.5 -109t-203 -34q-117 0 -215 43t-158 123l-6 -2l-24 -141h-82zM332 260q41 -70 128 -123t218 -53q80 0 147.5 23.5
t115.5 82t74.5 160t26.5 254.5q0 152 -24.5 251t-72.5 156.5t-116.5 80t-154.5 22.5q-111 0 -200 -45t-142 -125v-684z" />
    <glyph glyph-name="c" unicode="c" horiz-adv-x="1026" 
d="M117 618q0 309 118.5 460t378.5 151q86 0 164 -19.5t137 -48.5l-10 -114q-57 29 -125.5 46t-140.5 17q-106 0 -181 -27.5t-122 -88t-68.5 -153.5t-21.5 -223q0 -147 24.5 -247.5t73.5 -164t122 -91t169 -27.5q78 0 149.5 21.5t128.5 62.5l13 -109q-53 -41 -136 -65.5
t-178 -24.5q-248 0 -371.5 151.5t-123.5 493.5z" />
    <glyph glyph-name="d" unicode="d" horiz-adv-x="1277" 
d="M117 604q0 313 110.5 469t358.5 156q111 0 207 -40t161 -118l4 2l-4 164v391l125 10v-1638h-94l-20 141l-7 2q-115 -168 -374 -168q-252 0 -359.5 152.5t-107.5 476.5zM244 600q0 -139 19.5 -237.5t62.5 -161t113.5 -91t174.5 -28.5q76 0 133.5 16.5t98.5 43t67.5 57
t40.5 59.5v686q-45 76 -133 121t-205 45q-100 0 -171.5 -28.5t-115.5 -90t-64.5 -159t-20.5 -232.5z" />
    <glyph glyph-name="e" unicode="e" horiz-adv-x="1173" 
d="M117 645q0 287 119.5 435.5t361.5 148.5q102 0 187 -32t146.5 -99.5t95.5 -173t34 -252.5q0 -14 -1 -31.5t-3 -30.5h-813q2 -145 27.5 -244.5t77.5 -160t131 -87t188 -26.5q96 0 176 22.5t157 63.5l17 -108q-78 -45 -167 -70t-196 -25q-143 0 -245.5 39t-168 121t-95 209
t-29.5 301zM242 698h704q-2 115 -27.5 195t-71.5 130t-109.5 72.5t-139.5 22.5q-180 0 -263 -104.5t-93 -315.5z" />
    <glyph glyph-name="f" unicode="f" horiz-adv-x="825" 
d="M80 1110v98h194v60q0 80 21.5 146.5t69 114.5t120 73.5t174.5 25.5q45 0 92.5 -7t77.5 -17l-10 -88q-31 8 -66.5 13t-76.5 5q-145 0 -211 -70.5t-66 -197.5v-58h340v-98h-340v-1110h-125v1110h-194z" />
    <glyph glyph-name="g" unicode="g" horiz-adv-x="1157" 
d="M137 4q0 70 34 134.5t99 113.5q-47 20 -78.5 60t-31.5 102q0 55 40 102t111 70l2 4q-66 35 -105.5 103.5t-39.5 180.5q0 170 94 262.5t313 92.5q78 0 157 -18.5t138 -65.5l195 88l29 -64l-156 -104q20 -37 31.5 -83t11.5 -105q0 -86 -20.5 -150.5t-68.5 -110t-125 -68
t-192 -22.5q-43 0 -88 5.5t-86 17.5q-125 -29 -125 -111q0 -76 119 -94l297 -31q111 -12 185.5 -34.5t118.5 -57.5t62.5 -82t18.5 -106q0 -80 -24.5 -144.5t-82 -109.5t-151.5 -69.5t-231 -24.5q-238 0 -344.5 87t-106.5 232zM248 18q0 -109 79 -169t257 -60
q113 0 185.5 16.5t115.5 46t59.5 71.5t16.5 93q0 39 -12.5 70t-44.5 53.5t-87 36.5t-143 23l-295 30q-66 -41 -98.5 -98.5t-32.5 -112.5zM289 872q0 -76 21.5 -124t60.5 -75.5t90 -37.5t112 -10q166 0 227.5 62.5t61.5 184.5q0 139 -68.5 195.5t-218.5 56.5
q-158 0 -222 -62.5t-64 -189.5z" />
    <glyph glyph-name="h" unicode="h" horiz-adv-x="1273" 
d="M207 0v1628l125 10v-397l-2 -164l4 -2q63 76 156.5 116t203.5 40q201 0 304.5 -105.5t103.5 -308.5v-817h-125v817q0 141 -77 217t-238 76q-113 0 -201 -48t-129 -118v-944h-125z" />
    <glyph glyph-name="i" unicode="i" horiz-adv-x="630" 
d="M219 1542q0 86 96 86t97 -86q0 -86 -97 -86q-47 0 -71.5 18.5t-24.5 67.5zM252 0v1202l125 10v-1212h-125z" />
    <glyph glyph-name="j" unicode="j" horiz-adv-x="624" 
d="M-10 -293l10 98q20 -8 44 -13t46 -5q72 0 115 42t43 138v1235l125 10v-1247q0 -158 -72 -219t-184 -61q-31 0 -65.5 6t-61.5 16zM213 1546q0 86 96 86t97 -86q0 -86 -97 -86q-47 0 -71.5 18.5t-24.5 67.5z" />
    <glyph glyph-name="k" unicode="k" horiz-adv-x="1173" 
d="M207 0v1630l125 8v-929h192l422 501h160l-469 -553l489 -657h-157l-445 598h-192v-598h-125z" />
    <glyph glyph-name="l" unicode="l" horiz-adv-x="606" 
d="M242 0v1630l123 8v-1638h-123z" />
    <glyph glyph-name="m" unicode="m" horiz-adv-x="1871" 
d="M195 0v1206l88 8l24 -147h6q51 72 136.5 115t183.5 43q260 0 334 -201h6q41 100 131 151.5t209 51.5q172 0 279.5 -98.5t107.5 -305.5v-823h-123v821q0 147 -79 217t-214 70q-53 0 -103.5 -16.5t-88 -49t-60 -81t-22.5 -113.5v-848h-123v848q0 72 -21.5 121t-59.5 79.5
t-88 45t-106 14.5q-86 0 -169 -44t-126 -118v-946h-122z" />
    <glyph glyph-name="n" unicode="n" horiz-adv-x="1261" 
d="M195 0v1206l88 8l22 -145h6q61 76 158.5 118t208.5 42q193 0 302.5 -100.5t109.5 -311.5v-817h-123v815q0 156 -83 225.5t-237 69.5q-45 0 -92 -10t-92 -31.5t-83 -51.5t-63 -71v-946h-122z" />
    <glyph glyph-name="o" unicode="o" horiz-adv-x="1247" 
d="M117 602q0 168 30.5 287t93 194.5t159 110.5t227.5 35q133 0 228 -35t156.5 -110.5t90 -194.5t28.5 -287q0 -170 -28.5 -289.5t-90 -194.5t-156.5 -110t-228 -35q-131 0 -227.5 35t-160 110t-93 194.5t-29.5 289.5zM246 602q0 -141 21.5 -240.5t67.5 -162t117.5 -90
t174.5 -27.5q102 0 172.5 28.5t116 90t65.5 161t20 240.5t-20 239.5t-65.5 160t-116 89t-172.5 27.5t-174 -27.5t-118 -89t-67.5 -160t-21.5 -239.5z" />
    <glyph glyph-name="p" unicode="p" horiz-adv-x="1273" 
d="M195 -295v1497l92 8l26 -139h6q61 74 158.5 116t216.5 42q111 0 197 -31t145.5 -103.5t90 -191.5t30.5 -297q0 -172 -32.5 -291.5t-95 -195.5t-150.5 -110t-199 -34q-104 0 -196.5 35t-157.5 121l-4 -2l2 -166v-258h-129zM324 262q41 -70 122.5 -123t208.5 -53
q82 0 150.5 23.5t118 82t77 159t27.5 255.5q0 147 -23.5 244.5t-69.5 155t-113.5 81t-153.5 23.5q-231 0 -344 -168v-680z" />
    <glyph glyph-name="q" unicode="q" horiz-adv-x="1273" 
d="M117 604q0 168 30.5 287t92 193.5t150.5 109.5t206 35q119 0 216 -43t157 -127h6l20 147h80l-2 -1501l-125 -4v264l4 166l-4 2q-61 -74 -152 -112.5t-204 -38.5q-111 0 -199 32.5t-149.5 106.5t-94 192.5t-32.5 290.5zM246 604q0 -143 22.5 -240.5t68.5 -157t115.5 -85
t161.5 -25.5q76 0 136.5 18.5t103.5 46t67.5 62.5t28.5 68v643q-16 35 -48 66.5t-76 56t-97 39t-113 14.5q-98 0 -167.5 -25.5t-114.5 -86t-66.5 -157t-21.5 -237.5z" />
    <glyph glyph-name="r" unicode="r" horiz-adv-x="894" 
d="M195 0v1202l100 8l4 -135l4 -166h4q53 141 154.5 228.5t238.5 87.5q66 0 115 -15l-10 -129q-47 16 -111 17q-76 0 -144.5 -34t-120.5 -97.5t-82 -151.5t-30 -199v-616h-122z" />
    <glyph glyph-name="s" unicode="s" horiz-adv-x="1003" 
d="M127 86l20 113q66 -55 160 -85t187 -30q154 0 222 69.5t68 174.5q0 82 -48 128t-120.5 77.5t-156.5 57t-157 63.5t-121 97.5t-48 159.5q0 147 102.5 232.5t299.5 85.5q176 0 317 -70l-12 -108q-76 35 -154 51t-154 16q-129 0 -204.5 -54t-75.5 -146q0 -76 48 -118
t120 -71t157 -53.5t156.5 -63.5t119.5 -102.5t48 -169.5q0 -164 -97 -264.5t-308 -100.5q-109 0 -205 29t-164 82z" />
    <glyph glyph-name="t" unicode="t" horiz-adv-x="792" 
d="M80 1108v100h190l25 318l98 12v-330h318v-100h-318v-817q0 -111 52.5 -157t144.5 -46q27 0 55.5 4t46.5 12l10 -98q-25 -10 -64.5 -17t-80.5 -7q-141 0 -215 74.5t-74 230.5v821h-188z" />
    <glyph glyph-name="u" unicode="u" horiz-adv-x="1239" 
d="M172 381v827h123v-823q0 -141 82 -216t241 -75q160 0 243 74t83 217v823h123v-827q0 -193 -109.5 -299.5t-339.5 -106.5q-227 0 -336.5 108t-109.5 298z" />
    <glyph glyph-name="v" unicode="v" horiz-adv-x="1290" 
d="M86 1208h141l359 -940l57 -155h6l56 155l358 940h139l-483 -1208h-148z" />
    <glyph glyph-name="w" unicode="w" horiz-adv-x="1765" 
d="M127 1208h127l229 -948l37 -162h6l39 160l254 950h137l252 -954l41 -160h6l33 162l225 952h125l-305 -1208h-157l-244 915l-39 162h-6l-41 -162l-250 -915h-154z" />
    <glyph glyph-name="x" unicode="x" horiz-adv-x="1208" 
d="M102 0l414 614l-403 594h151l342 -528l338 528h146l-396 -590l410 -618h-154l-352 551l-348 -551h-148z" />
    <glyph glyph-name="y" unicode="y" horiz-adv-x="1290" 
d="M86 1208h150l389 -944l61 -153h6l49 157l324 940h137l-461 -1253q-61 -156 -141 -214t-190 -58q-98 0 -177 38l17 101q35 -20 70.5 -28.5t68.5 -8.5q74 0 127 37t98 139l9 27z" />
    <glyph glyph-name="z" unicode="z" horiz-adv-x="1114" 
d="M143 0v90l588 871l94 131l-2 4h-653l4 112h799v-92l-586 -870l-94 -129l2 -6h686l-4 -111h-834z" />
    <glyph glyph-name="braceleft" unicode="{" horiz-adv-x="739" 
d="M211 662v65q80 8 125 54t45 116q0 68 -6 125t-14.5 114.5t-14.5 116t-6 127.5q0 127 78 194.5t264 67.5h51v-104h-57q-123 0 -170 -45t-47 -127q0 -68 5 -123t11 -109.5t11.5 -109.5t5.5 -123q0 -72 -32 -126t-98 -77v-6q66 -25 98 -79t32 -126q0 -68 -5.5 -124
t-11.5 -109t-11 -108.5t-5 -122.5q0 -82 47 -128.5t170 -46.5h57v-102h-51q-186 0 -264 67.5t-78 192.5q0 70 6 129.5t14.5 115.5t14.5 114.5t6 126.5q0 70 -45 116t-125 54z" />
    <glyph glyph-name="bar" unicode="|" horiz-adv-x="565" 
d="M233 -362v2033h99v-2033h-99z" />
    <glyph glyph-name="braceright" unicode="}" horiz-adv-x="739" 
d="M6 -152h57q123 0 171.5 46.5t48.5 128.5q0 68 -6.5 123t-12.5 108t-12 109.5t-6 123.5q0 72 32.5 126.5t98.5 78.5v6q-66 23 -98.5 77t-32.5 126q0 68 6 123t12 109.5t12.5 109.5t6.5 123q0 82 -48.5 127t-171.5 45h-57v104h51q94 0 159 -17t105.5 -51t59 -82t18.5 -112
q0 -70 -6 -128t-14 -115.5t-14.5 -114.5t-6.5 -125q0 -70 45.5 -116t124.5 -54v-65q-80 -8 -125 -54.5t-45 -115.5q0 -68 6.5 -126.5t14.5 -114.5t14 -115.5t6 -129.5q0 -61 -18.5 -110.5t-59 -82t-105 -50t-159.5 -17.5h-51v102z" />
    <glyph glyph-name="asciitilde" unicode="~" 
d="M217 1317q20 125 79.5 188.5t166.5 63.5q55 0 108.5 -23.5t103.5 -52.5t100 -52.5t99 -23.5q72 0 107 34t57 95h82q-43 -250 -246 -250q-55 0 -108 23.5t-103.5 51.5t-99.5 51.5t-98 23.5q-68 0 -105.5 -33t-60.5 -96h-82z" />
    <glyph glyph-name="uni00A0" unicode="&#xa0;" horiz-adv-x="655" 
 />
    <glyph glyph-name="exclamdown" unicode="&#xa1;" horiz-adv-x="620" 
d="M215 1288q0 86 92 86q47 0 71.5 -19.5t24.5 -66.5q0 -90 -96 -90q-92 0 -92 90zM244 -276l18 1247h100l17 -1247h-135z" />
    <glyph glyph-name="cent" unicode="&#xa2;" horiz-adv-x="1034" 
d="M123 618q0 299 110.5 450t352.5 161l16 270h103l-17 -274q66 -6 126 -23.5t108 -40.5l-11 -114q-57 29 -125.5 46t-140.5 17q-106 0 -181 -27.5t-122 -88t-68.5 -153.5t-21.5 -223q0 -147 24.5 -247.5t73.5 -164t122 -91t169 -27.5q78 0 149.5 21.5t129.5 62.5l12 -109
q-49 -37 -121 -60t-156 -28l-10 -288h-104l12 288q-217 18 -323.5 171t-106.5 472z" />
    <glyph glyph-name="sterling" unicode="&#xa3;" horiz-adv-x="1323" 
d="M131 109q104 41 155.5 141t51.5 223q0 72 -7 131.5t-18 112.5h-133l-4 110h109q-20 74 -37 143.5t-17 153.5q0 88 27 166t88.5 136.5t161.5 93t248 34.5q115 0 214 -23.5t175 -60.5l-21 -120q-66 35 -161 58.5t-195 23.5q-109 0 -185.5 -25t-124.5 -67t-70.5 -99
t-22.5 -125q0 -74 15 -143.5t36 -145.5h563v-110h-539q10 -53 18.5 -112.5t8.5 -125.5q0 -129 -43 -220t-117 -144l2 -4q106 16 213 23t250 7q117 0 232.5 -8t226.5 -18q0 -2 -1 -21.5t-3 -42t-3 -42t-3 -21.5q-137 14 -256 22t-250 8q-74 0 -142.5 -2t-138 -5t-142.5 -8
t-155 -13z" />
    <glyph glyph-name="currency" unicode="&#xa4;" horiz-adv-x="1161" 
d="M164 399l129 131q-63 88 -64 205q0 59 17.5 112.5t50.5 98.5l-131 135l70 78l133 -139q45 33 97 51.5t112 18.5q59 0 112 -18.5t96 -53.5l142 141l69 -76l-139 -141q68 -90 68 -207q0 -111 -62 -200l131 -134l-69 -77l-135 135q-92 -74 -213 -74q-59 0 -113.5 18.5
t-99.5 53.5l-132 -133zM319 739q0 -53 20.5 -99t55.5 -80t82 -53.5t101 -19.5q53 0 100 19.5t82 53.5t54.5 80t19.5 99t-19.5 98.5t-54.5 80t-82 54t-100 19.5t-100.5 -19.5t-82.5 -54t-55.5 -80t-20.5 -98.5z" />
    <glyph glyph-name="yen" unicode="&#xa5;" horiz-adv-x="1484" 
d="M156 1536h155l361 -709l71 -147h7l69 147l359 709h149l-471 -866h240v-88h-277v-117h277v-86h-277v-379h-143v379h-285v86h285v117h-285v88h248z" />
    <glyph glyph-name="brokenbar" unicode="&#xa6;" horiz-adv-x="565" 
d="M233 -352v917h99v-917h-99zM233 766v905h99v-905h-99z" />
    <glyph glyph-name="section" unicode="&#xa7;" horiz-adv-x="1140" 
d="M150 741q0 43 11 86t36.5 83t66.5 73t101 57l2 4q-82 51 -134.5 114t-52.5 149q0 147 108.5 231t317.5 84q100 0 203.5 -25.5t175.5 -76.5l-16 -103q-84 51 -173 75t-186 24q-150 0 -226.5 -54.5t-76.5 -148.5q0 -70 55.5 -120t137.5 -94t178 -89t178 -102.5
t137.5 -135.5t55.5 -186q0 -88 -49.5 -171t-165.5 -128v-6q80 -49 132 -113t52 -150q0 -147 -108.5 -230t-315.5 -83q-102 0 -204.5 25.5t-174.5 76.5l14 103q82 -53 173.5 -75.5t185.5 -22.5q152 0 227.5 54t75.5 148q0 70 -55.5 120t-137.5 94t-178 89t-178 102.5
t-137 135t-55 186.5zM270 754q0 -76 42 -133.5t107.5 -104.5t146.5 -87t161 -83q104 35 152.5 95.5t48.5 131.5q0 76 -42 133.5t-107.5 104.5t-146.5 87t-161 83q-106 -35 -153.5 -95t-47.5 -132z" />
    <glyph glyph-name="dieresis" unicode="&#xa8;" horiz-adv-x="808" 
d="M184 1548q0 37 18.5 58.5t53.5 21.5q72 0 72 -80q0 -78 -72 -78q-35 0 -53.5 17.5t-18.5 60.5zM489 1548q0 37 18.5 58.5t53.5 21.5q72 0 72 -80q0 -78 -72 -78q-35 0 -53.5 17.5t-18.5 60.5z" />
    <glyph glyph-name="copyright" unicode="&#xa9;" horiz-adv-x="1892" 
d="M141 778q0 166 63.5 312.5t172 255t255 172t314.5 63.5q166 0 312.5 -63.5t256 -172t173 -255t63.5 -312.5q0 -168 -63.5 -314.5t-173 -256t-256 -173t-312.5 -63.5q-168 0 -314.5 63.5t-255 173t-172 256t-63.5 314.5zM215 780q0 -147 56.5 -280t154.5 -232.5
t232.5 -159t287.5 -59.5q152 0 286 57.5t234.5 156.5t157.5 232.5t57 284.5q0 147 -57 278.5t-157.5 229.5t-234.5 155.5t-286 57.5q-154 0 -288 -57.5t-232 -155.5t-154.5 -229.5t-56.5 -278.5zM440 778q0 104 35 198.5t101.5 167.5t165 114.5t223.5 41.5q96 0 176 -26.5
t127 -61.5l-13 -98q-51 31 -122.5 49.5t-137.5 18.5q-102 0 -182 -30t-135 -84t-84 -128t-29 -162q0 -90 31 -165.5t87 -131t136 -86t178 -30.5q86 0 158 24.5t129 59.5q4 -23 7 -47.5t7 -47.5q-59 -45 -145 -79.5t-184 -34.5q-117 0 -214.5 39.5t-167 111.5t-108.5 170
t-39 217z" />
    <glyph glyph-name="ordfeminine" unicode="&#xaa;" horiz-adv-x="831" 
d="M115 1069q0 123 73.5 190.5t217.5 67.5q51 0 99 -9t89 -30v98q0 111 -47 151t-150 40q-117 0 -221 -49l-12 96q119 53 254 53q154 0 218 -71.5t64 -237.5v-557h-84l-10 107l-6 2q-41 -57 -100.5 -88t-134.5 -31q-113 0 -181.5 62.5t-68.5 205.5zM219 1069q0 -96 49 -134
t125 -38q41 0 77 13.5t63.5 35t44 49t16.5 54.5v157q-16 10 -60.5 21.5t-107.5 11.5q-109 0 -158 -43t-49 -127z" />
    <glyph glyph-name="guillemotleft" unicode="&#xab;" horiz-adv-x="1249" 
d="M61 668v14l570 369v-109l-432 -268l432 -266v-111zM465 668v14l569 369v-109l-432 -268l432 -266v-111z" />
    <glyph glyph-name="logicalnot" unicode="&#xac;" 
d="M248 641v119h844v-443h-107v324h-737z" />
    <glyph glyph-name="uni00AD" unicode="&#xad;" horiz-adv-x="847" 
d="M164 647v98h518v-98h-518z" />
    <glyph glyph-name="registered" unicode="&#xae;" horiz-adv-x="927" 
d="M113 1360q0 74 27.5 138.5t75.5 113.5t111.5 76.5t137.5 27.5t137.5 -27.5t111.5 -76.5t75.5 -113.5t27.5 -138.5t-27.5 -138.5t-75.5 -112.5t-111.5 -75.5t-137.5 -27.5t-137.5 27.5t-111.5 75.5t-75.5 112.5t-27.5 138.5zM158 1360q0 -63 24.5 -118.5t66.5 -97.5
t98 -66.5t120 -24.5q61 0 116.5 24.5t97.5 66.5t65.5 97t23.5 119q0 66 -23.5 121t-65.5 97t-97.5 65.5t-116.5 23.5q-63 0 -119.5 -23.5t-98.5 -65.5t-66.5 -97t-24.5 -121zM317 1163v410h175q84 0 116.5 -34t32.5 -87q0 -41 -22.5 -72.5t-63.5 -42.5l100 -174h-71l-90 170
h-113v-170h-64zM381 1382h123q39 0 57.5 19.5t18.5 48.5q0 35 -19.5 51.5t-66.5 16.5h-113v-136z" />
    <glyph glyph-name="uni02C9" unicode="&#xaf;" horiz-adv-x="808" 
d="M141 1479v90h539v-90h-539z" />
    <glyph glyph-name="uni02C9" unicode="&#x2c9;" horiz-adv-x="808" 
d="M141 1479v90h539v-90h-539z" />
    <glyph glyph-name="degree" unicode="&#xb0;" horiz-adv-x="731" 
d="M115 1417q0 53 19.5 99.5t53 80t78.5 54t99 20.5q53 0 98 -19.5t80 -54t54 -81t19 -99.5q0 -51 -19 -97t-54 -81t-80 -55.5t-98 -20.5q-51 0 -97.5 20.5t-80 55.5t-53 81t-19.5 97zM184 1417q0 -37 13.5 -68.5t38 -56t58.5 -39t73 -14.5q74 0 127 51t53 127
q0 78 -53.5 129t-126.5 51q-82 0 -132.5 -53t-50.5 -127z" />
    <glyph glyph-name="plusminus" unicode="&#xb1;" 
d="M225 166v104h883v-104h-883zM227 713v116h381v383h115v-383h389v-116h-389v-355h-115v355h-381z" />
    <glyph glyph-name="uni00B2" unicode="&#xb2;" horiz-adv-x="698" 
d="M92 1028v72q82 76 158 144.5t134 132t93 123t35 114.5q0 59 -40 99t-136 40q-61 0 -114.5 -22.5t-100.5 -57.5l-29 86q49 39 115.5 63.5t148.5 24.5q133 0 200 -60.5t67 -164.5q0 -63 -29 -123.5t-81 -121t-124 -122t-158 -129.5v-6h400l-2 -92h-537z" />
    <glyph glyph-name="uni00B3" unicode="&#xb3;" horiz-adv-x="698" 
d="M72 1085l26 84q47 -29 103.5 -45t124.5 -16q102 0 149 47t47 121q0 78 -58 110.5t-208 32.5v78q139 0 193.5 36t54.5 103q0 61 -45 91t-127 30q-72 0 -125 -19.5t-101 -58.5l-26 80q43 37 109.5 62.5t144.5 25.5q127 0 198.5 -52t71.5 -153q0 -78 -41 -119.5t-106 -60.5
v-4q82 -16 125 -61t43 -127q0 -117 -72 -183.5t-227 -66.5q-86 0 -146.5 18t-107.5 47z" />
    <glyph glyph-name="acute" unicode="&#xb4;" horiz-adv-x="808" 
d="M334 1362l164 291h164l-226 -291h-102z" />
    <glyph glyph-name="mu" unicode="&#xb5;" horiz-adv-x="1261" 
d="M195 -307v1515h124l-2 -817q0 -72 26 -128t71 -94t106.5 -58.5t134.5 -20.5q66 0 123.5 16.5t98.5 50t64.5 83t23.5 112.5v856h125v-1206l-91 -10l-20 135l-6 2q-41 -74 -125 -113t-191 -39q-53 0 -105 10.5t-99 34t-85 60.5t-63 90l-4 -2q4 -125 9 -239.5t12 -225.5z
" />
    <glyph glyph-name="mu" unicode="&#x3bc;" horiz-adv-x="1261" 
d="M195 -307v1515h124l-2 -817q0 -72 26 -128t71 -94t106.5 -58.5t134.5 -20.5q66 0 123.5 16.5t98.5 50t64.5 83t23.5 112.5v856h125v-1206l-91 -10l-20 135l-6 2q-41 -74 -125 -113t-191 -39q-53 0 -105 10.5t-99 34t-85 60.5t-63 90l-4 -2q4 -125 9 -239.5t12 -225.5z
" />
    <glyph glyph-name="paragraph" unicode="&#xb6;" horiz-adv-x="1316" 
d="M113 1294q0 104 72.5 173t217.5 69h799l-6 -113h-160v-1724h-112v1724h-416l2 -1724h-113v1341q-129 4 -206.5 67.5t-77.5 186.5z" />
    <glyph glyph-name="uni2219" unicode="&#xb7;" horiz-adv-x="565" 
d="M186 705q0 94 99 94q94 0 94 -94q0 -96 -94 -97q-49 0 -74 22t-25 75z" />
    <glyph glyph-name="uni2219" unicode="&#x2219;" horiz-adv-x="565" 
d="M186 705q0 94 99 94q94 0 94 -94q0 -96 -94 -97q-49 0 -74 22t-25 75z" />
    <glyph glyph-name="cedilla" unicode="&#xb8;" horiz-adv-x="808" 
d="M281 -393l120 393h88l-81 -393h-127z" />
    <glyph glyph-name="uni00B9" unicode="&#xb9;" horiz-adv-x="540" 
d="M100 1673l228 168h65v-813h-108v508l6 162l-6 2l-174 -117z" />
    <glyph glyph-name="ordmasculine" unicode="&#xba;" horiz-adv-x="899" 
d="M111 1237q0 240 82.5 340t259.5 100q178 0 258 -100t80 -340t-81 -339t-257 -99q-178 0 -260 99t-82 339zM221 1237q0 -96 13.5 -160.5t41 -104.5t71.5 -57.5t106 -17.5q61 0 105 17.5t71.5 57.5t40 104.5t12.5 160.5t-12.5 160.5t-40 104.5t-71.5 56.5t-105 16.5
t-105.5 -16.5t-72 -56.5t-41 -104.5t-13.5 -160.5z" />
    <glyph glyph-name="guillemotright" unicode="&#xbb;" horiz-adv-x="1249" 
d="M172 297v111l432 266l-432 268v109l569 -369v-14zM578 297v111l432 266l-432 268v109l569 -369v-14z" />
    <glyph glyph-name="onequarter" unicode="&#xbc;" horiz-adv-x="1779" 
d="M279 1372l227 168h65v-813h-108v508l6 162l-6 2l-174 -117zM313 0l1041 1536h100l-1040 -1536h-101zM948 240l389 567h131v-541h105l-4 -86h-101v-180h-100v180h-412zM1071 272l2 -6h297l2 281l6 166l-4 2l-92 -140l-117 -174z" />
    <glyph glyph-name="onehalf" unicode="&#xbd;" horiz-adv-x="1779" 
d="M272 1372l228 168h65v-813h-108v508l6 162l-6 2l-174 -117zM299 0l1040 1536h101l-1041 -1536h-100zM1069 0v72q82 74 158 142.5t134 132t93 122.5t35 117q0 59 -40 99t-136 40q-61 0 -114.5 -22.5t-100.5 -57.5l-29 86q49 37 115.5 61.5t148.5 24.5q133 0 199.5 -59.5
t66.5 -163.5q0 -63 -28.5 -124.5t-80.5 -121t-124 -121t-158 -129.5v-6h400l-2 -92h-537z" />
    <glyph glyph-name="threequarters" unicode="&#xbe;" horiz-adv-x="1779" 
d="M145 784l27 84q47 -29 103.5 -45t123.5 -16q102 0 149.5 47t47.5 121q0 78 -58.5 110.5t-207.5 32.5v78q139 0 193.5 36t54.5 103q0 63 -45.5 92t-126.5 29q-72 0 -125.5 -19.5t-100.5 -56.5l-26 78q43 37 109.5 62.5t144.5 25.5q127 0 198.5 -51t71.5 -154
q0 -78 -41 -119.5t-107 -60.5v-4q82 -16 125 -61t43 -127q0 -117 -71.5 -183.5t-227.5 -66.5q-86 0 -146.5 18t-107.5 47zM315 0l1041 1536h100l-1040 -1536h-101zM952 240l389 567h132v-541h104l-4 -86h-100v-180h-101v180h-411zM1075 272l2 -6h297l2 281l6 166l-4 2
l-92 -140l-117 -174z" />
    <glyph glyph-name="questiondown" unicode="&#xbf;" horiz-adv-x="1003" 
d="M109 145q0 88 26.5 161t75.5 136.5t120.5 117.5t162.5 106l8 299h100l8 -351q-88 -55 -156.5 -106t-116.5 -105.5t-73.5 -113t-25.5 -129.5q0 -131 79.5 -189.5t214.5 -58.5q123 0 218.5 43t173.5 113l49 -99q-76 -78 -191.5 -128t-259.5 -50q-209 0 -311 91t-102 263z
M455 1286q0 90 92 90q96 0 96 -90q0 -88 -96 -88q-92 0 -92 88z" />
    <glyph glyph-name="Agrave" unicode="&#xc0;" horiz-adv-x="1429" 
d="M51 0l584 1536h160l583 -1536h-151l-146 406h-739l-145 -406h-146zM387 526h651l-268 752l-51 158h-6l-54 -158zM465 1876h170l176 -234h-109z" />
    <glyph glyph-name="Aacute" unicode="&#xc1;" horiz-adv-x="1429" 
d="M51 0l584 1536h160l583 -1536h-151l-146 406h-739l-145 -406h-146zM387 526h651l-268 752l-51 158h-6l-54 -158zM610 1638l178 236h185l-256 -236h-107z" />
    <glyph glyph-name="Acircumflex" unicode="&#xc2;" horiz-adv-x="1429" 
d="M51 0l584 1536h160l583 -1536h-151l-146 406h-739l-145 -406h-146zM387 526h651l-268 752l-51 158h-6l-54 -158zM408 1638l239 236h133l248 -236h-131l-182 170l-178 -170h-129z" />
    <glyph glyph-name="Atilde" unicode="&#xc3;" horiz-adv-x="1429" 
d="M51 0l584 1536h160l583 -1536h-151l-146 406h-739l-145 -406h-146zM387 526h651l-268 752l-51 158h-6l-54 -158zM432 1657q10 88 50 143t108 55q41 0 75.5 -22.5t64.5 -50t58.5 -50t57.5 -22.5q66 0 90 117l61 -2q-10 -88 -50 -144.5t-109 -56.5q-39 0 -73 22.5t-63.5 50
t-58.5 50t-57 22.5q-35 0 -56.5 -31.5t-33.5 -82.5z" />
    <glyph glyph-name="Adieresis" unicode="&#xc4;" horiz-adv-x="1429" 
d="M51 0l584 1536h160l583 -1536h-151l-146 406h-739l-145 -406h-146zM387 526h651l-268 752l-51 158h-6l-54 -158zM453 1731q0 76 71 75q70 0 70 -75q0 -76 -70 -76q-35 0 -53 17.5t-18 58.5zM838 1731q0 76 71 75q70 0 70 -75q0 -76 -70 -76q-35 0 -53 17.5t-18 58.5z" />
    <glyph glyph-name="Aring" unicode="&#xc5;" horiz-adv-x="1429" 
d="M51 0l576 1516q-80 35 -80 133q0 66 42 106.5t126 40.5q80 0 124 -40t44 -105q0 -98 -82 -133l577 -1518h-151l-146 406h-739l-145 -406h-146zM387 526h651l-268 752l-51 158h-6l-54 -158zM621 1647q0 -37 23.5 -59.5t70.5 -22.5q96 0 96 82q0 37 -24.5 59.5t-71.5 22.5
t-70.5 -22.5t-23.5 -59.5z" />
    <glyph glyph-name="AE" unicode="&#xc6;" horiz-adv-x="2150" 
d="M115 0l870 1536h1032l4 -127h-831l65 -547h648v-114h-633l73 -621h699l-6 -127h-811l-47 406h-678l-221 -406h-164zM565 526h598l-86 744l-14 164l-6 2l-76 -148z" />
    <glyph glyph-name="Ccedilla" unicode="&#xc7;" horiz-adv-x="1251" 
d="M143 784q0 403 157 590t491 187q49 0 99 -6.5t98 -16.5t89 -23.5t72 -27.5l-19 -125q-63 29 -150 49.5t-183 20.5q-131 0 -228.5 -33t-161 -109t-94 -199.5t-30.5 -306.5q0 -195 31.5 -325.5t96 -210.5t162 -114t230.5 -34q98 0 180 21.5t152 58.5l22 -117
q-63 -35 -152.5 -60.5t-183.5 -29.5l-76 -366h-127l113 366q-154 8 -264.5 59.5t-182 151t-106.5 248.5t-35 352z" />
    <glyph glyph-name="Egrave" unicode="&#xc8;" horiz-adv-x="1282" 
d="M227 0v1536h906l6 -127h-779v-547h674v-114h-674v-621h816l-7 -127h-942zM449 1876h169l177 -234h-109z" />
    <glyph glyph-name="Eacute" unicode="&#xc9;" horiz-adv-x="1282" 
d="M227 0v1536h906l6 -127h-779v-547h674v-114h-674v-621h816l-7 -127h-942zM594 1638l178 236h184l-256 -236h-106z" />
    <glyph glyph-name="Ecircumflex" unicode="&#xca;" horiz-adv-x="1282" 
d="M227 0v1536h906l6 -127h-779v-547h674v-114h-674v-621h816l-7 -127h-942zM393 1638l240 236h133l248 -236h-131l-183 170l-178 -170h-129z" />
    <glyph glyph-name="Edieresis" unicode="&#xcb;" horiz-adv-x="1282" 
d="M227 0v1536h906l6 -127h-779v-547h674v-114h-674v-621h816l-7 -127h-942zM436 1731q0 76 72 75q70 0 70 -75q0 -76 -70 -76q-35 0 -53.5 17.5t-18.5 58.5zM821 1731q0 76 72 75q70 0 70 -75q0 -76 -70 -76q-35 0 -53.5 17.5t-18.5 58.5z" />
    <glyph glyph-name="Igrave" unicode="&#xcc;" horiz-adv-x="647" 
d="M74 1876h170l176 -234h-109zM256 0v1536h135v-1536h-135z" />
    <glyph glyph-name="Iacute" unicode="&#xcd;" horiz-adv-x="647" 
d="M219 1638l178 236h185l-256 -236h-107zM256 0v1536h135v-1536h-135z" />
    <glyph glyph-name="Icircumflex" unicode="&#xce;" horiz-adv-x="647" 
d="M16 1638l240 236h133l248 -236h-131l-182 170l-179 -170h-129zM256 0v1536h135v-1536h-135z" />
    <glyph glyph-name="Idieresis" unicode="&#xcf;" horiz-adv-x="647" 
d="M61 1731q0 76 72 75q70 0 70 -75q0 -76 -70 -76q-35 0 -53.5 17.5t-18.5 58.5zM256 0v1536h135v-1536h-135zM446 1731q0 76 72 75q70 0 70 -75q0 -76 -70 -76q-35 0 -53.5 17.5t-18.5 58.5z" />
    <glyph glyph-name="Ntilde" unicode="&#xd1;" horiz-adv-x="1564" 
d="M227 0v1536h133l768 -1159l91 -139l4 2l-4 163l-2 1133h120v-1536h-100l-795 1188l-90 139l-4 -2l2 -166v-1159h-123zM516 1657q10 88 50 143t108 55q41 0 75.5 -22.5t64.5 -50t58.5 -50t57.5 -22.5q66 0 90 117l61 -2q-10 -88 -50 -144.5t-109 -56.5q-39 0 -73 22.5
t-63.5 50t-58.5 50t-57 22.5q-35 0 -56.5 -31.5t-33.5 -82.5z" />
    <glyph glyph-name="Ograve" unicode="&#xd2;" horiz-adv-x="1509" 
d="M143 768q0 213 33 363.5t106.5 246t190.5 139.5t283 44q168 0 284.5 -44t189.5 -139.5t105.5 -246t32.5 -363.5q0 -215 -32.5 -365.5t-105.5 -247t-189.5 -140.5t-284.5 -44q-166 0 -283 44t-189.5 140.5t-106.5 248t-34 364.5zM283 768q0 -193 26.5 -322t84 -204.5
t147.5 -107.5t217 -32t216 32t146.5 107.5t83 204.5t25.5 322q0 195 -25.5 323t-83 203.5t-147.5 106.5t-217 31t-217 -31t-146.5 -106.5t-83 -203.5t-26.5 -323zM545 1876h170l176 -234h-109z" />
    <glyph glyph-name="Oacute" unicode="&#xd3;" horiz-adv-x="1509" 
d="M143 768q0 213 33 363.5t106.5 246t190.5 139.5t283 44q168 0 284.5 -44t189.5 -139.5t105.5 -246t32.5 -363.5q0 -215 -32.5 -365.5t-105.5 -247t-189.5 -140.5t-284.5 -44q-166 0 -283 44t-189.5 140.5t-106.5 248t-34 364.5zM283 768q0 -193 26.5 -322t84 -204.5
t147.5 -107.5t217 -32t216 32t146.5 107.5t83 204.5t25.5 322q0 195 -25.5 323t-83 203.5t-147.5 106.5t-217 31t-217 -31t-146.5 -106.5t-83 -203.5t-26.5 -323zM651 1638l178 236h185l-256 -236h-107z" />
    <glyph glyph-name="Ocircumflex" unicode="&#xd4;" horiz-adv-x="1509" 
d="M143 768q0 213 33 363.5t106.5 246t190.5 139.5t283 44q168 0 284.5 -44t189.5 -139.5t105.5 -246t32.5 -363.5q0 -215 -32.5 -365.5t-105.5 -247t-189.5 -140.5t-284.5 -44q-166 0 -283 44t-189.5 140.5t-106.5 248t-34 364.5zM283 768q0 -193 26.5 -322t84 -204.5
t147.5 -107.5t217 -32t216 32t146.5 107.5t83 204.5t25.5 322q0 195 -25.5 323t-83 203.5t-147.5 106.5t-217 31t-217 -31t-146.5 -106.5t-83 -203.5t-26.5 -323zM451 1638l239 236h133l248 -236h-131l-182 170l-178 -170h-129z" />
    <glyph glyph-name="Otilde" unicode="&#xd5;" horiz-adv-x="1509" 
d="M143 768q0 213 33 363.5t106.5 246t190.5 139.5t283 44q168 0 284.5 -44t189.5 -139.5t105.5 -246t32.5 -363.5q0 -215 -32.5 -365.5t-105.5 -247t-189.5 -140.5t-284.5 -44q-166 0 -283 44t-189.5 140.5t-106.5 248t-34 364.5zM283 768q0 -193 26.5 -322t84 -204.5
t147.5 -107.5t217 -32t216 32t146.5 107.5t83 204.5t25.5 322q0 195 -25.5 323t-83 203.5t-147.5 106.5t-217 31t-217 -31t-146.5 -106.5t-83 -203.5t-26.5 -323zM475 1657q10 88 50 143t108 55q41 0 75.5 -22.5t64.5 -50t58.5 -50t57.5 -22.5q66 0 90 117l61 -2
q-10 -88 -50 -144.5t-109 -56.5q-39 0 -73 22.5t-63.5 50t-58.5 50t-57 22.5q-35 0 -56.5 -31.5t-33.5 -82.5z" />
    <glyph glyph-name="Odieresis" unicode="&#xd6;" horiz-adv-x="1509" 
d="M143 768q0 213 33 363.5t106.5 246t190.5 139.5t283 44q168 0 284.5 -44t189.5 -139.5t105.5 -246t32.5 -363.5q0 -215 -32.5 -365.5t-105.5 -247t-189.5 -140.5t-284.5 -44q-166 0 -283 44t-189.5 140.5t-106.5 248t-34 364.5zM283 768q0 -193 26.5 -322t84 -204.5
t147.5 -107.5t217 -32t216 32t146.5 107.5t83 204.5t25.5 322q0 195 -25.5 323t-83 203.5t-147.5 106.5t-217 31t-217 -31t-146.5 -106.5t-83 -203.5t-26.5 -323zM494 1731q0 76 71 75q70 0 70 -75q0 -76 -70 -76q-35 0 -53 17.5t-18 58.5zM879 1731q0 76 71 75q70 0 70 -75
q0 -76 -70 -76q-35 0 -53 17.5t-18 58.5z" />
    <glyph glyph-name="multiply" unicode="&#xd7;" horiz-adv-x="1216" 
d="M217 377l320 315l-318 314l74 84l319 -316l314 316l75 -84l-317 -314l315 -315l-71 -82l-318 315l-317 -315z" />
    <glyph glyph-name="Oslash" unicode="&#xd8;" horiz-adv-x="1509" 
d="M121 43l127 168q-55 98 -80 234.5t-25 322.5q0 213 34 363.5t107.5 246t190.5 139.5t283 44q164 0 277.5 -41t187.5 -131l141 167l70 -67l-154 -193q47 -94 67.5 -224t20.5 -304q0 -215 -32.5 -365.5t-105.5 -247t-188.5 -140.5t-283.5 -44q-154 0 -265.5 37t-185.5 119
l-117 -156zM285 768q0 -297 63 -449l785 957q-57 86 -148.5 121t-226.5 35q-127 0 -217 -31t-146.5 -106.5t-83 -203.5t-26.5 -323zM395 240q57 -76 146.5 -107t216.5 -31t217 32t146.5 107.5t82 204.5t25.5 322q0 139 -12.5 242.5t-36.5 181.5l-6 2l-103 -131z" />
    <glyph glyph-name="Ugrave" unicode="&#xd9;" horiz-adv-x="1517" 
d="M193 555v981h135v-981q0 -238 107.5 -345.5t324.5 -107.5t323.5 108.5t106.5 344.5v981h135v-981q0 -154 -38 -264.5t-110.5 -181t-178 -104.5t-238.5 -34q-135 0 -240.5 34t-178.5 104.5t-110.5 181t-37.5 264.5zM508 1876h170l176 -234h-109z" />
    <glyph glyph-name="Uacute" unicode="&#xda;" horiz-adv-x="1517" 
d="M193 555v981h135v-981q0 -238 107.5 -345.5t324.5 -107.5t323.5 108.5t106.5 344.5v981h135v-981q0 -154 -38 -264.5t-110.5 -181t-178 -104.5t-238.5 -34q-135 0 -240.5 34t-178.5 104.5t-110.5 181t-37.5 264.5zM651 1638l178 236h185l-256 -236h-107z" />
    <glyph glyph-name="Ucircumflex" unicode="&#xdb;" horiz-adv-x="1517" 
d="M193 555v981h135v-981q0 -238 107.5 -345.5t324.5 -107.5t323.5 108.5t106.5 344.5v981h135v-981q0 -154 -38 -264.5t-110.5 -181t-178 -104.5t-238.5 -34q-135 0 -240.5 34t-178.5 104.5t-110.5 181t-37.5 264.5zM451 1638l239 236h133l248 -236h-131l-182 170
l-178 -170h-129z" />
    <glyph glyph-name="Udieresis" unicode="&#xdc;" horiz-adv-x="1517" 
d="M193 555v981h135v-981q0 -238 107.5 -345.5t324.5 -107.5t323.5 108.5t106.5 344.5v981h135v-981q0 -154 -38 -264.5t-110.5 -181t-178 -104.5t-238.5 -34q-135 0 -240.5 34t-178.5 104.5t-110.5 181t-37.5 264.5zM496 1731q0 76 71 75q70 0 70 -75q0 -76 -70 -76
q-35 0 -53 17.5t-18 58.5zM881 1731q0 76 71 75q70 0 70 -75q0 -76 -70 -76q-35 0 -53 17.5t-18 58.5z" />
    <glyph glyph-name="Yacute" unicode="&#xdd;" horiz-adv-x="1343" 
d="M61 1536h158l381 -719l74 -147h6l72 147l378 719h152l-539 -997v-539h-137v539zM569 1638l179 236h184l-256 -236h-107z" />
    <glyph glyph-name="Thorn" unicode="&#xde;" horiz-adv-x="1320" 
d="M227 0v1536h133v-287h308q147 0 251.5 -26.5t170 -82t96.5 -141.5t31 -206q0 -117 -30 -203t-95.5 -143.5t-170 -85t-253.5 -27.5h-308v-334h-133zM360 451h308q109 0 186.5 17t127.5 57t74.5 105.5t24.5 164.5q0 92 -23.5 155.5t-73.5 103.5t-129 57t-187 17h-308v-677z
" />
    <glyph glyph-name="germandbls" unicode="&#xdf;" horiz-adv-x="1273" 
d="M207 0v1047q0 252 117.5 384t334.5 132q72 0 132.5 -20.5t104.5 -55.5t68.5 -82t24.5 -102q0 -84 -48 -150t-106.5 -117t-106.5 -92t-48 -76q0 -31 37 -57.5t91 -55t118.5 -64.5t119 -83t91.5 -110.5t37 -149.5q0 -174 -120 -269t-319 -95q-82 0 -175 20.5t-159 67.5
l13 114q59 -43 138 -65.5t165 -22.5q145 0 238.5 63.5t93.5 182.5q0 72 -37 125t-93.5 93t-121 73t-120.5 65.5t-93 68.5t-37 83q0 39 24.5 74t60.5 67.5t78 66.5t77.5 70.5t60 78.5t24.5 89q0 66 -58 110t-157 44q-162 0 -244.5 -100.5t-82.5 -292.5v-1059h-123z" />
    <glyph glyph-name="agrave" unicode="&#xe0;" horiz-adv-x="1163" 
d="M131 360q0 174 106.5 267.5t329.5 93.5q82 0 161 -15.5t140 -37.5v149q0 172 -74.5 237.5t-234.5 65.5q-94 0 -179 -17.5t-163 -58.5l-14 109q172 80 377 80q111 0 189.5 -23.5t127.5 -76t72.5 -135.5t23.5 -199v-799h-94l-14 170l-6 2q-49 -86 -149.5 -138t-227.5 -52
q-82 0 -150.5 21.5t-118 66.5t-76 117.5t-26.5 172.5zM250 362q0 -76 21.5 -129t60.5 -84.5t90 -46t113 -14.5q66 0 126 21.5t106 55.5t73.5 77t27.5 86v241q-23 16 -97.5 37t-184.5 21q-176 0 -256 -69t-80 -196zM346 1653h162l149 -291h-100z" />
    <glyph glyph-name="aacute" unicode="&#xe1;" horiz-adv-x="1163" 
d="M131 360q0 174 106.5 267.5t329.5 93.5q82 0 161 -15.5t140 -37.5v149q0 172 -74.5 237.5t-234.5 65.5q-94 0 -179 -17.5t-163 -58.5l-14 109q172 80 377 80q111 0 189.5 -23.5t127.5 -76t72.5 -135.5t23.5 -199v-799h-94l-14 170l-6 2q-49 -86 -149.5 -138t-227.5 -52
q-82 0 -150.5 21.5t-118 66.5t-76 117.5t-26.5 172.5zM250 362q0 -76 21.5 -129t60.5 -84.5t90 -46t113 -14.5q66 0 126 21.5t106 55.5t73.5 77t27.5 86v241q-23 16 -97.5 37t-184.5 21q-176 0 -256 -69t-80 -196zM469 1362l164 291h164l-226 -291h-102z" />
    <glyph glyph-name="acircumflex" unicode="&#xe2;" horiz-adv-x="1163" 
d="M131 360q0 174 106.5 267.5t329.5 93.5q82 0 161 -15.5t140 -37.5v149q0 172 -74.5 237.5t-234.5 65.5q-94 0 -179 -17.5t-163 -58.5l-14 109q172 80 377 80q111 0 189.5 -23.5t127.5 -76t72.5 -135.5t23.5 -199v-799h-94l-14 170l-6 2q-49 -86 -149.5 -138t-227.5 -52
q-82 0 -150.5 21.5t-118 66.5t-76 117.5t-26.5 172.5zM250 362q0 -76 21.5 -129t60.5 -84.5t90 -46t113 -14.5q66 0 126 21.5t106 55.5t73.5 77t27.5 86v241q-23 16 -97.5 37t-184.5 21q-176 0 -256 -69t-80 -196zM301 1362l215 291h115l219 -291h-105l-172 231l-167 -231
h-105z" />
    <glyph glyph-name="atilde" unicode="&#xe3;" horiz-adv-x="1163" 
d="M131 360q0 174 106.5 267.5t329.5 93.5q82 0 161 -15.5t140 -37.5v149q0 172 -74.5 237.5t-234.5 65.5q-94 0 -179 -17.5t-163 -58.5l-14 109q172 80 377 80q111 0 189.5 -23.5t127.5 -76t72.5 -135.5t23.5 -199v-799h-94l-14 170l-6 2q-49 -86 -149.5 -138t-227.5 -52
q-82 0 -150.5 21.5t-118 66.5t-76 117.5t-26.5 172.5zM250 362q0 -76 21.5 -129t60.5 -84.5t90 -46t113 -14.5q66 0 126 21.5t106 55.5t73.5 77t27.5 86v241q-23 16 -97.5 37t-184.5 21q-176 0 -256 -69t-80 -196zM287 1415q10 100 52 159.5t107 59.5q45 0 79 -23.5
t63.5 -53t58.5 -53t62 -23.5q63 0 92 131l67 -2q-10 -102 -53 -160.5t-108 -58.5q-43 0 -77 23.5t-63.5 53t-57.5 53t-60 23.5q-31 0 -55.5 -35.5t-39.5 -95.5z" />
    <glyph glyph-name="adieresis" unicode="&#xe4;" horiz-adv-x="1163" 
d="M131 360q0 174 106.5 267.5t329.5 93.5q82 0 161 -15.5t140 -37.5v149q0 172 -74.5 237.5t-234.5 65.5q-94 0 -179 -17.5t-163 -58.5l-14 109q172 80 377 80q111 0 189.5 -23.5t127.5 -76t72.5 -135.5t23.5 -199v-799h-94l-14 170l-6 2q-49 -86 -149.5 -138t-227.5 -52
q-82 0 -150.5 21.5t-118 66.5t-76 117.5t-26.5 172.5zM250 362q0 -76 21.5 -129t60.5 -84.5t90 -46t113 -14.5q66 0 126 21.5t106 55.5t73.5 77t27.5 86v241q-23 16 -97.5 37t-184.5 21q-176 0 -256 -69t-80 -196zM362 1548q0 37 18.5 58.5t53.5 21.5q72 0 72 -80
q0 -78 -72 -78q-35 0 -53.5 17.5t-18.5 60.5zM668 1548q0 37 18.5 58.5t52.5 21.5q72 0 72 -80q0 -78 -72 -78q-35 0 -53 17.5t-18 60.5z" />
    <glyph glyph-name="aring" unicode="&#xe5;" horiz-adv-x="1163" 
d="M131 360q0 174 106.5 267.5t329.5 93.5q82 0 161 -15.5t140 -37.5v149q0 172 -74.5 237.5t-234.5 65.5q-94 0 -179 -17.5t-163 -58.5l-14 109q172 80 377 80q111 0 189.5 -23.5t127.5 -76t72.5 -135.5t23.5 -199v-799h-94l-14 170l-6 2q-49 -86 -149.5 -138t-227.5 -52
q-82 0 -150.5 21.5t-118 66.5t-76 117.5t-26.5 172.5zM250 362q0 -76 21.5 -129t60.5 -84.5t90 -46t113 -14.5q66 0 126 21.5t106 55.5t73.5 77t27.5 86v241q-23 16 -97.5 37t-184.5 21q-176 0 -256 -69t-80 -196zM401 1526q0 70 47.5 112.5t133.5 42.5t133 -44t47 -111
q0 -70 -47 -112t-133 -42q-84 0 -132.5 41t-48.5 113zM473 1526q0 -41 27.5 -67.5t83.5 -26.5q51 0 81.5 26.5t30.5 67.5t-29.5 67.5t-82.5 26.5q-55 0 -83 -26.5t-28 -67.5z" />
    <glyph glyph-name="ae" unicode="&#xe6;" horiz-adv-x="1910" 
d="M131 356q0 174 106.5 266.5t329.5 92.5q86 0 164 -16.5t137 -41.5v156q0 172 -74.5 237.5t-234.5 65.5q-94 0 -179 -17.5t-163 -58.5l-14 109q172 80 377 80q154 0 241.5 -50.5t122.5 -162.5h4q59 106 158.5 159.5t234.5 53.5q98 0 182.5 -32t145 -99.5t94 -173
t33.5 -252.5v-32q0 -17 -2 -30h-811q4 -145 29.5 -244.5t78 -160t130 -87t184.5 -26.5q96 0 176 23.5t158 64.5l16 -110q-78 -45 -167 -70t-197 -25q-186 0 -298 63.5t-163 197.5h-6q-45 -121 -152.5 -190t-259.5 -69q-172 0 -276.5 88t-104.5 291zM248 358q0 -76 22.5 -129
t60.5 -84.5t90 -46t114 -14.5q74 0 134 22.5t105 60.5t69.5 91t24.5 115v192q-23 16 -97.5 37t-184.5 21q-176 0 -257 -69t-81 -196zM981 698h702q-2 115 -28.5 195t-72.5 130t-109.5 72.5t-137.5 22.5q-176 0 -261 -104.5t-93 -315.5z" />
    <glyph glyph-name="ccedilla" unicode="&#xe7;" horiz-adv-x="1026" 
d="M117 618q0 309 118.5 460t378.5 151q86 0 164 -19.5t137 -48.5l-10 -114q-57 29 -125.5 46t-140.5 17q-106 0 -181 -27.5t-122 -88t-68.5 -153.5t-21.5 -223q0 -147 24.5 -247.5t73.5 -164t122 -91t169 -27.5q78 0 149.5 21.5t128.5 62.5l13 -109q-49 -37 -122 -60
t-159 -28l-76 -368h-127l113 368q-219 16 -328.5 168.5t-109.5 474.5z" />
    <glyph glyph-name="egrave" unicode="&#xe8;" horiz-adv-x="1173" 
d="M117 645q0 287 119.5 435.5t361.5 148.5q102 0 187 -32t146.5 -99.5t95.5 -173t34 -252.5q0 -14 -1 -31.5t-3 -30.5h-813q2 -145 27.5 -244.5t77.5 -160t131 -87t188 -26.5q96 0 176 22.5t157 63.5l17 -108q-78 -45 -167 -70t-196 -25q-143 0 -245.5 39t-168 121t-95 209
t-29.5 301zM242 698h704q-2 115 -27.5 195t-71.5 130t-109.5 72.5t-139.5 22.5q-180 0 -263 -104.5t-93 -315.5zM371 1653h161l150 -291h-100z" />
    <glyph glyph-name="eacute" unicode="&#xe9;" horiz-adv-x="1173" 
d="M117 645q0 287 119.5 435.5t361.5 148.5q102 0 187 -32t146.5 -99.5t95.5 -173t34 -252.5q0 -14 -1 -31.5t-3 -30.5h-813q2 -145 27.5 -244.5t77.5 -160t131 -87t188 -26.5q96 0 176 22.5t157 63.5l17 -108q-78 -45 -167 -70t-196 -25q-143 0 -245.5 39t-168 121t-95 209
t-29.5 301zM242 698h704q-2 115 -27.5 195t-71.5 130t-109.5 72.5t-139.5 22.5q-180 0 -263 -104.5t-93 -315.5zM494 1362l163 291h164l-225 -291h-102z" />
    <glyph glyph-name="ecircumflex" unicode="&#xea;" horiz-adv-x="1173" 
d="M117 645q0 287 119.5 435.5t361.5 148.5q102 0 187 -32t146.5 -99.5t95.5 -173t34 -252.5q0 -14 -1 -31.5t-3 -30.5h-813q2 -145 27.5 -244.5t77.5 -160t131 -87t188 -26.5q96 0 176 22.5t157 63.5l17 -108q-78 -45 -167 -70t-196 -25q-143 0 -245.5 39t-168 121t-95 209
t-29.5 301zM242 698h704q-2 115 -27.5 195t-71.5 130t-109.5 72.5t-139.5 22.5q-180 0 -263 -104.5t-93 -315.5zM324 1362l215 291h114l219 -291h-104l-172 231l-168 -231h-104z" />
    <glyph glyph-name="edieresis" unicode="&#xeb;" horiz-adv-x="1173" 
d="M117 645q0 287 119.5 435.5t361.5 148.5q102 0 187 -32t146.5 -99.5t95.5 -173t34 -252.5q0 -14 -1 -31.5t-3 -30.5h-813q2 -145 27.5 -244.5t77.5 -160t131 -87t188 -26.5q96 0 176 22.5t157 63.5l17 -108q-78 -45 -167 -70t-196 -25q-143 0 -245.5 39t-168 121t-95 209
t-29.5 301zM242 698h704q-2 115 -27.5 195t-71.5 130t-109.5 72.5t-139.5 22.5q-180 0 -263 -104.5t-93 -315.5zM360 1548q0 37 18.5 58.5t53.5 21.5q72 0 72 -80q0 -78 -72 -78q-35 0 -53.5 17.5t-18.5 60.5zM666 1548q0 37 18 58.5t53 21.5q72 0 72 -80q0 -78 -72 -78
q-35 0 -53 17.5t-18 60.5z" />
    <glyph glyph-name="igrave" unicode="&#xec;" horiz-adv-x="630" 
d="M84 1653h162l149 -291h-100zM252 0v1202l125 10v-1212h-125z" />
    <glyph glyph-name="iacute" unicode="&#xed;" horiz-adv-x="630" 
d="M207 1362l164 291h164l-226 -291h-102zM252 0v1202l125 10v-1212h-125z" />
    <glyph glyph-name="icircumflex" unicode="&#xee;" horiz-adv-x="630" 
d="M37 1362l215 291h115l219 -291h-105l-172 231l-168 -231h-104zM252 0v1202l125 10v-1212h-125z" />
    <glyph glyph-name="idieresis" unicode="&#xef;" horiz-adv-x="630" 
d="M98 1548q0 37 18.5 58.5t53.5 21.5q72 0 72 -80q0 -78 -72 -78q-35 0 -53.5 17.5t-18.5 60.5zM252 0v1202l125 10v-1212h-125zM403 1548q0 37 18.5 58.5t53.5 21.5q72 0 72 -80q0 -78 -72 -78q-35 0 -53.5 17.5t-18.5 60.5z" />
    <glyph glyph-name="eth" unicode="&#xf0;" horiz-adv-x="1249" 
d="M117 590q0 301 110.5 444.5t370.5 143.5q215 0 342 -121l4 4q-47 98 -116.5 183t-159.5 163l-176 -145l-54 49l170 143q-47 35 -98 68.5t-104 64.5l77 68q100 -51 203 -135l162 135l53 -56l-158 -131q82 -74 153 -165t123 -192t83 -210.5t31 -222.5q0 -190 -32 -323.5
t-94.5 -217.5t-156.5 -123t-219 -39q-127 0 -223.5 31t-161 102.5t-97 189.5t-32.5 292zM244 586q0 -147 24.5 -243.5t73.5 -153t121 -79t164 -22.5q188 0 283.5 134t95.5 435q0 408 -379 408q-102 0 -175 -25.5t-119 -83t-67.5 -148.5t-21.5 -222z" />
    <glyph glyph-name="ntilde" unicode="&#xf1;" horiz-adv-x="1261" 
d="M195 0v1206l88 8l22 -145h6q61 76 158.5 118t208.5 42q193 0 302.5 -100.5t109.5 -311.5v-817h-123v815q0 156 -83 225.5t-237 69.5q-45 0 -92 -10t-92 -31.5t-83 -51.5t-63 -71v-946h-122zM346 1415q10 100 52 159.5t108 59.5q45 0 78.5 -23.5t63.5 -53t58.5 -53
t61.5 -23.5q63 0 92 131l68 -2q-10 -102 -53.5 -160.5t-108.5 -58.5q-43 0 -77 23.5t-63.5 53t-57 53t-60.5 23.5q-31 0 -55.5 -35.5t-38.5 -95.5z" />
    <glyph glyph-name="ograve" unicode="&#xf2;" horiz-adv-x="1247" 
d="M117 602q0 168 30.5 287t93 194.5t159 110.5t227.5 35q133 0 228 -35t156.5 -110.5t90 -194.5t28.5 -287q0 -170 -28.5 -289.5t-90 -194.5t-156.5 -110t-228 -35q-131 0 -227.5 35t-160 110t-93 194.5t-29.5 289.5zM246 602q0 -141 21.5 -240.5t67.5 -162t117.5 -90
t174.5 -27.5q102 0 172.5 28.5t116 90t65.5 161t20 240.5t-20 239.5t-65.5 160t-116 89t-172.5 27.5t-174 -27.5t-118 -89t-67.5 -160t-21.5 -239.5zM399 1653h162l150 -291h-101z" />
    <glyph glyph-name="oacute" unicode="&#xf3;" horiz-adv-x="1247" 
d="M117 602q0 168 30.5 287t93 194.5t159 110.5t227.5 35q133 0 228 -35t156.5 -110.5t90 -194.5t28.5 -287q0 -170 -28.5 -289.5t-90 -194.5t-156.5 -110t-228 -35q-131 0 -227.5 35t-160 110t-93 194.5t-29.5 289.5zM246 602q0 -141 21.5 -240.5t67.5 -162t117.5 -90
t174.5 -27.5q102 0 172.5 28.5t116 90t65.5 161t20 240.5t-20 239.5t-65.5 160t-116 89t-172.5 27.5t-174 -27.5t-118 -89t-67.5 -160t-21.5 -239.5zM522 1362l164 291h164l-225 -291h-103z" />
    <glyph glyph-name="ocircumflex" unicode="&#xf4;" horiz-adv-x="1247" 
d="M117 602q0 168 30.5 287t93 194.5t159 110.5t227.5 35q133 0 228 -35t156.5 -110.5t90 -194.5t28.5 -287q0 -170 -28.5 -289.5t-90 -194.5t-156.5 -110t-228 -35q-131 0 -227.5 35t-160 110t-93 194.5t-29.5 289.5zM246 602q0 -141 21.5 -240.5t67.5 -162t117.5 -90
t174.5 -27.5q102 0 172.5 28.5t116 90t65.5 161t20 240.5t-20 239.5t-65.5 160t-116 89t-172.5 27.5t-174 -27.5t-118 -89t-67.5 -160t-21.5 -239.5zM352 1362l215 291h115l219 -291h-104l-172 231l-168 -231h-105z" />
    <glyph glyph-name="otilde" unicode="&#xf5;" horiz-adv-x="1247" 
d="M117 602q0 168 30.5 287t93 194.5t159 110.5t227.5 35q133 0 228 -35t156.5 -110.5t90 -194.5t28.5 -287q0 -170 -28.5 -289.5t-90 -194.5t-156.5 -110t-228 -35q-131 0 -227.5 35t-160 110t-93 194.5t-29.5 289.5zM246 602q0 -141 21.5 -240.5t67.5 -162t117.5 -90
t174.5 -27.5q102 0 172.5 28.5t116 90t65.5 161t20 240.5t-20 239.5t-65.5 160t-116 89t-172.5 27.5t-174 -27.5t-118 -89t-67.5 -160t-21.5 -239.5zM340 1415q10 100 52 159.5t108 59.5q45 0 78.5 -23.5t63.5 -53t58.5 -53t61.5 -23.5q63 0 92 131l68 -2
q-10 -102 -53.5 -160.5t-108.5 -58.5q-43 0 -77 23.5t-63.5 53t-57 53t-60.5 23.5q-31 0 -55.5 -35.5t-38.5 -95.5z" />
    <glyph glyph-name="odieresis" unicode="&#xf6;" horiz-adv-x="1247" 
d="M117 602q0 168 30.5 287t93 194.5t159 110.5t227.5 35q133 0 228 -35t156.5 -110.5t90 -194.5t28.5 -287q0 -170 -28.5 -289.5t-90 -194.5t-156.5 -110t-228 -35q-131 0 -227.5 35t-160 110t-93 194.5t-29.5 289.5zM246 602q0 -141 21.5 -240.5t67.5 -162t117.5 -90
t174.5 -27.5q102 0 172.5 28.5t116 90t65.5 161t20 240.5t-20 239.5t-65.5 160t-116 89t-172.5 27.5t-174 -27.5t-118 -89t-67.5 -160t-21.5 -239.5zM399 1548q0 37 18.5 58.5t53.5 21.5q72 0 72 -80q0 -78 -72 -78q-35 0 -53.5 17.5t-18.5 60.5zM705 1548q0 37 18 58.5
t53 21.5q72 0 72 -80q0 -78 -72 -78q-35 0 -53 17.5t-18 60.5z" />
    <glyph glyph-name="divide" unicode="&#xf7;" horiz-adv-x="1216" 
d="M141 637v123h936v-123h-936zM512 387q0 86 94 86q96 0 96 -86q0 -84 -96 -84q-45 0 -69.5 18.5t-24.5 65.5zM512 1006q0 86 94 86q96 0 96 -86q0 -84 -96 -84q-45 0 -69.5 18.5t-24.5 65.5z" />
    <glyph glyph-name="oslash" unicode="&#xf8;" horiz-adv-x="1247" 
d="M92 59l101 129q-76 145 -76 414q0 168 30.5 287t93 194.5t159 110.5t227.5 35q236 0 352 -111l82 107l57 -56l-84 -118q96 -147 96 -449q0 -170 -28.5 -289.5t-90 -194.5t-156.5 -110t-228 -35t-227.5 34t-157.5 108l-92 -113zM246 602q0 -96 9 -171t26 -134h4l106 125
l516 590q-47 55 -114.5 80.5t-165.5 25.5q-102 0 -175 -27.5t-119 -89t-66.5 -160t-20.5 -239.5zM315 225q45 -76 122 -109.5t190 -33.5q102 0 172.5 28.5t116 90t65.5 161t20 240.5q0 113 -13 199t-42 145z" />
    <glyph glyph-name="ugrave" unicode="&#xf9;" horiz-adv-x="1239" 
d="M172 381v827h123v-823q0 -141 82 -216t241 -75q160 0 243 74t83 217v823h123v-827q0 -193 -109.5 -299.5t-339.5 -106.5q-227 0 -336.5 108t-109.5 298zM395 1653h162l150 -291h-101z" />
    <glyph glyph-name="uacute" unicode="&#xfa;" horiz-adv-x="1239" 
d="M172 381v827h123v-823q0 -141 82 -216t241 -75q160 0 243 74t83 217v823h123v-827q0 -193 -109.5 -299.5t-339.5 -106.5q-227 0 -336.5 108t-109.5 298zM518 1362l164 291h164l-225 -291h-103z" />
    <glyph glyph-name="ucircumflex" unicode="&#xfb;" horiz-adv-x="1239" 
d="M172 381v827h123v-823q0 -141 82 -216t241 -75q160 0 243 74t83 217v823h123v-827q0 -193 -109.5 -299.5t-339.5 -106.5q-227 0 -336.5 108t-109.5 298zM348 1362l215 291h115l219 -291h-104l-172 231l-168 -231h-105z" />
    <glyph glyph-name="udieresis" unicode="&#xfc;" horiz-adv-x="1239" 
d="M172 381v827h123v-823q0 -141 82 -216t241 -75q160 0 243 74t83 217v823h123v-827q0 -193 -109.5 -299.5t-339.5 -106.5q-227 0 -336.5 108t-109.5 298zM395 1548q0 37 18.5 58.5t53.5 21.5q72 0 72 -80q0 -78 -72 -78q-35 0 -53.5 17.5t-18.5 60.5zM700 1548
q0 37 18.5 58.5t53.5 21.5q72 0 72 -80q0 -78 -72 -78q-35 0 -53.5 17.5t-18.5 60.5z" />
    <glyph glyph-name="yacute" unicode="&#xfd;" horiz-adv-x="1290" 
d="M86 1208h150l389 -944l61 -153h6l49 157l324 940h137l-461 -1253q-61 -156 -141 -214t-190 -58q-98 0 -177 38l17 101q35 -20 70.5 -28.5t68.5 -8.5q74 0 127 37t98 139l9 27zM530 1362l164 291h164l-225 -291h-103z" />
    <glyph glyph-name="thorn" unicode="&#xfe;" horiz-adv-x="1286" 
d="M207 -295v1925l129 8v-401l-2 -164l4 -2q66 74 163 116t216 42q109 0 192.5 -31t141 -103.5t88 -191.5t30.5 -297q0 -172 -31.5 -291.5t-93 -195.5t-148.5 -110t-198 -34q-106 0 -199 35t-161 117l-4 -2l2 -166v-254h-129zM336 262q41 -70 122 -123t210 -53
q82 0 149.5 23.5t116.5 82t75.5 159t26.5 255.5q0 147 -23.5 244.5t-68.5 155t-111.5 81t-152.5 23.5q-229 0 -344 -168v-680z" />
    <glyph glyph-name="ydieresis" unicode="&#xff;" horiz-adv-x="1290" 
d="M86 1208h150l389 -944l61 -153h6l49 157l324 940h137l-461 -1253q-61 -156 -141 -214t-190 -58q-98 0 -177 38l17 101q35 -20 70.5 -28.5t68.5 -8.5q74 0 127 37t98 139l9 27zM422 1548q0 37 18.5 58.5t53.5 21.5q72 0 71 -80q0 -78 -71 -78q-35 0 -53.5 17.5t-18.5 60.5
zM727 1548q0 37 18.5 58.5t53.5 21.5q72 0 71 -80q0 -78 -71 -78q-35 0 -53.5 17.5t-18.5 60.5z" />
    <glyph glyph-name="OE" unicode="&#x152;" horiz-adv-x="2273" 
d="M143 768q0 213 33 363.5t104.5 246t183 139.5t271.5 44q182 0 306 -58.5t184 -193.5h6v227h893l4 -127h-774v-547h669v-114h-669v-621h813l-6 -127h-930v240l-6 2q-59 -141 -183 -206t-307 -65q-158 0 -270.5 44t-184 140.5t-104.5 248t-33 364.5zM283 768
q0 -193 26.5 -322t84 -205.5t147.5 -108.5t217 -32t215 32t143 108.5t80 205.5t25 322q0 195 -25 323t-80 204.5t-144 107.5t-216 31t-217 -31t-146.5 -107.5t-83 -204.5t-26.5 -323z" />
    <glyph glyph-name="oe" unicode="&#x153;" horiz-adv-x="2072" 
d="M137 602q0 168 31 287t92.5 194.5t155.5 110.5t221 35q176 0 285.5 -63.5t156.5 -200.5h6q94 264 416 264q100 0 184 -32t145.5 -99.5t95.5 -173t34 -252.5q0 -14 -1 -31.5t-3 -30.5h-809q4 -145 29.5 -244.5t77 -160t130 -87t185.5 -26.5q92 0 173 23.5t159 64.5
l18 -110q-78 -45 -168 -70t-195 -25q-197 0 -307 70t-159 223h-7q-47 -162 -159.5 -228.5t-286.5 -66.5q-129 0 -223.5 35t-155.5 110t-91 194.5t-30 289.5zM262 602q0 -141 21.5 -240.5t67.5 -162t119 -90t175 -27.5t174 28.5t116 90t64.5 161t20.5 240.5t-20.5 239.5
t-64.5 160t-115.5 89t-174.5 27.5q-102 0 -175 -27.5t-119 -89t-67.5 -160t-21.5 -239.5zM1145 698h698q0 115 -26.5 195t-72.5 130t-108.5 72.5t-136.5 22.5q-178 0 -263 -104.5t-91 -315.5z" />
    <glyph glyph-name="Ydieresis" unicode="&#x178;" horiz-adv-x="1343" 
d="M61 1536h158l381 -719l74 -147h6l72 147l378 719h152l-539 -997v-539h-137v539zM412 1731q0 76 71 75q70 0 70 -75q0 -76 -70 -76q-35 0 -53 17.5t-18 58.5zM797 1731q0 76 71 75q70 0 70 -75q0 -76 -70 -76q-35 0 -53 17.5t-18 58.5z" />
    <glyph glyph-name="circumflex" unicode="&#x2c6;" horiz-adv-x="808" 
d="M131 1362l215 291h115l219 -291h-105l-172 231l-167 -231h-105z" />
    <glyph glyph-name="tilde" unicode="&#x2dc;" horiz-adv-x="808" 
d="M127 1415q10 100 52 159.5t108 59.5q45 0 78.5 -23.5t63.5 -53t58.5 -53t61.5 -23.5q63 0 92 131l68 -2q-10 -102 -53.5 -160.5t-108.5 -58.5q-43 0 -77 23.5t-63.5 53t-57 53t-60.5 23.5q-31 0 -55.5 -35.5t-38.5 -95.5z" />
    <glyph glyph-name="endash" unicode="&#x2013;" horiz-adv-x="1107" 
d="M164 647v98h780v-98h-780z" />
    <glyph glyph-name="emdash" unicode="&#x2014;" horiz-adv-x="1462" 
d="M164 647v98h1134v-98h-1134z" />
    <glyph glyph-name="quoteleft" unicode="&#x2018;" horiz-adv-x="452" 
d="M133 1335q0 23 11.5 67t30 94t41 101.5t42.5 90.5l49 -13l-53 -254q29 -8 48.5 -32.5t19.5 -55.5q0 -45 -21.5 -72.5t-71.5 -27.5q-51 0 -73.5 27.5t-22.5 74.5z" />
    <glyph glyph-name="quoteright" unicode="&#x2019;" horiz-adv-x="454" 
d="M131 1534q0 45 22.5 72.5t71.5 27.5q51 0 74 -27.5t23 -74.5q0 -23 -12.5 -67t-31 -94t-41 -101t-42.5 -90l-48 12l54 254q-29 8 -49.5 32.5t-20.5 55.5z" />
    <glyph glyph-name="quotesinglbase" unicode="&#x201a;" horiz-adv-x="454" 
d="M131 68q0 45 22.5 72.5t71.5 27.5q51 0 74 -27.5t23 -74.5q0 -23 -12.5 -67t-31 -94t-41 -101.5t-42.5 -90.5l-48 13l54 254q-29 8 -49.5 32.5t-20.5 55.5z" />
    <glyph glyph-name="quotedblleft" unicode="&#x201c;" horiz-adv-x="790" 
d="M133 1335q0 23 11.5 67t30 94t41 101.5t42.5 90.5l49 -13l-53 -254q29 -8 48.5 -32.5t19.5 -55.5q0 -45 -21.5 -72.5t-71.5 -27.5q-51 0 -73.5 27.5t-22.5 74.5zM469 1335q0 23 12.5 67t31.5 94t42 101.5t43 90.5l45 -13l-53 -254q29 -8 49 -32.5t20 -55.5
q0 -45 -21.5 -72.5t-72.5 -27.5q-49 0 -72.5 27.5t-23.5 74.5z" />
    <glyph glyph-name="quotedblright" unicode="&#x201d;" horiz-adv-x="790" 
d="M131 1532q0 45 22.5 72.5t71.5 27.5q51 0 74 -27.5t23 -74.5q0 -23 -12.5 -67t-31 -94t-41 -101t-42.5 -90l-48 12l54 254q-29 8 -49.5 32.5t-20.5 55.5zM467 1532q0 45 22.5 72.5t71.5 27.5q51 0 73.5 -27.5t22.5 -74.5q0 -23 -12 -67t-30.5 -94t-41 -101t-43.5 -90
l-47 12l54 254q-29 8 -49.5 32.5t-20.5 55.5z" />
    <glyph glyph-name="quotedblbase" unicode="&#x201e;" horiz-adv-x="790" 
d="M131 68q0 45 22.5 72.5t71.5 27.5q51 0 74 -27.5t23 -74.5q0 -23 -12.5 -67t-31 -94t-41 -101.5t-42.5 -90.5l-48 13l54 254q-29 8 -49.5 32.5t-20.5 55.5zM469 68q0 45 22.5 72.5t71.5 27.5q51 0 73.5 -27.5t22.5 -74.5q0 -23 -12 -67t-30.5 -94t-41 -101.5t-43.5 -90.5
l-47 13l54 254q-29 8 -49.5 32.5t-20.5 55.5z" />
    <glyph glyph-name="bullet" unicode="&#x2022;" horiz-adv-x="823" 
d="M158 659q0 254 250 254q248 0 247 -254q0 -256 -247 -256q-250 0 -250 256z" />
    <glyph glyph-name="ellipsis" unicode="&#x2026;" horiz-adv-x="1243" 
d="M152 76q0 94 98 94q94 0 94 -94q0 -96 -94 -96q-49 0 -73.5 21.5t-24.5 74.5zM537 76q0 94 98 94q94 0 94 -94q0 -96 -94 -96q-49 0 -73.5 21.5t-24.5 74.5zM899 76q0 94 98 94q94 0 95 -94q0 -96 -95 -96q-49 0 -73.5 21.5t-24.5 74.5z" />
    <glyph glyph-name="guilsinglleft" unicode="&#x2039;" horiz-adv-x="841" 
d="M111 668v14l569 369v-109l-432 -268l432 -266v-111z" />
    <glyph glyph-name="guilsinglright" unicode="&#x203a;" horiz-adv-x="841" 
d="M162 297v111l432 266l-432 268v109l569 -369v-14z" />
    <glyph glyph-name="Euro" unicode="&#x20ac;" horiz-adv-x="1406" 
d="M76 612v86h182q-2 23 -2 47v50v49h-180v90h186q29 301 185.5 458.5t437.5 157.5q106 0 206.5 -21.5t165.5 -58.5l-28 -108q-80 35 -152.5 51.5t-173.5 16.5q-231 0 -357 -125t-155 -371h692l-22 -90h-678v-60v-44q0 -22 2 -42h619l-23 -86h-590q29 -274 154 -394
t354 -120q100 0 197.5 29t183.5 82l14 -107q-78 -55 -189.5 -86.5t-230.5 -31.5q-147 0 -255.5 37.5t-183.5 115.5t-117 197t-56 278h-186z" />
    <glyph glyph-name="trademark" unicode="&#x2122;" horiz-adv-x="1325" 
d="M80 1513v74h440v-74h-180v-479h-78v479h-182zM612 1034v553h105l131 -307l63 -152h7l61 152l133 307h96v-553h-67v299l4 166l-6 2l-64 -155l-133 -312h-59l-135 314l-64 153l-4 -2l2 -166v-299h-70z" />
    <glyph glyph-name="uniE000" unicode="&#xe000;" horiz-adv-x="1210" 
d="M0 1210h1210v-1210h-1210v1210z" />
    <glyph glyph-name="uniFB01" unicode="&#xfb01;" horiz-adv-x="1413" 
d="M80 1110v98h196v60q0 80 21.5 146.5t69 114.5t120 73.5t175.5 25.5q41 0 83.5 -5t69.5 -13l-4 -90q-25 6 -58.5 11t-68.5 5q-152 0 -218.5 -71.5t-66.5 -198.5v-58h760v-1208h-127v1110h-633v-1110h-123v1110h-196zM999 1546q0 86 97 86q96 0 96 -86t-96 -86
q-47 0 -72 18.5t-25 67.5z" />
    <glyph glyph-name="uniFB02" unicode="&#xfb02;" horiz-adv-x="1351" 
d="M80 1110v98h194v64q0 80 26 147.5t82 116.5t149.5 75.5t228.5 26.5q55 0 100 -3t86 -7t81 -8t83 -6v-1614h-123v1530q-57 6 -110.5 11t-116.5 5q-199 0 -280 -71.5t-81 -204.5v-62h287v-98h-287v-1110h-125v1110h-194z" />
    <glyph glyph-name="uniFB03" unicode="&#xfb03;" horiz-adv-x="2281" 
d="M1870 1542q0 86 96 86t97 -86q0 -86 -97 -86q-47 0 -71.5 18.5t-24.5 67.5zM1903 0v1202l125 10v-1212h-125zM905 1110v98h194v60q0 80 21.5 146.5t69 114.5t120 73.5t174.5 25.5q45 0 92.5 -7t77.5 -17l-10 -88q-31 8 -66.5 13t-76.5 5q-145 0 -211 -70.5t-66 -197.5
v-58h340v-98h-340v-1110h-125v1110h-194zM80 1110v98h194v60q0 80 21.5 146.5t69 114.5t120 73.5t174.5 25.5q45 0 92.5 -7t77.5 -17l-10 -88q-31 8 -66.5 13t-76.5 5q-145 0 -211 -70.5t-66 -197.5v-58h340v-98h-340v-1110h-125v1110h-194z" />
    <glyph glyph-name="uniFB04" unicode="&#xfb04;" horiz-adv-x="2256" 
d="M1893 0v1630l123 8v-1638h-123zM905 1110v98h194v60q0 80 21.5 146.5t69 114.5t120 73.5t174.5 25.5q45 0 92.5 -7t77.5 -17l-10 -88q-31 8 -66.5 13t-76.5 5q-145 0 -211 -70.5t-66 -197.5v-58h340v-98h-340v-1110h-125v1110h-194zM80 1110v98h194v60q0 80 21.5 146.5
t69 114.5t120 73.5t174.5 25.5q45 0 92.5 -7t77.5 -17l-10 -88q-31 8 -66.5 13t-76.5 5q-145 0 -211 -70.5t-66 -197.5v-58h340v-98h-340v-1110h-125v1110h-194z" />
    </font>
</defs>
</svg>
